<svg xmlns="http://www.w3.org/2000/svg" viewBox="0 0 646.9 636.9"><style>.st0{fill-rule:evenodd;clip-rule:evenodd}</style><path class="st0" d="M606.7 77.9c-1.8-.9-3.8-1.7-5.8-2.2L345.4 4.8c-1.2-.3-2.4-.8-3.6-1.2-11.9-4.7-24.9-4.8-36.6-.3-1.3.5-2.6 1-3.9 1.3L43.7 71.5c-2.2.6-4.3 1.3-6.2 2.3-35.9 18.7-34.1 30.8 4.2 49l2.1.9L307 226.4c13.4 6.1 28.5 6.2 41.5.3l257.1-98.8c.7-.3 1.5-.6 2.2-.9 37.3-17.8 36.1-30-1.1-49.1zm-283.2 39c-23.4 0-42.3-10.5-42.3-23.4 0-12.9 18.9-23.4 42.3-23.4s42.3 10.5 42.3 23.4c0 13-19 23.4-42.3 23.4zm-32.6 130L41.3 151C22.2 143.7 1 156.9 0 177.4V512c0 16.4 12.5 29.8 28.4 31.4 2.6.3 5.1.9 7.5 1.8L269 634.7c20 7.7 41.4-7.1 41.4-28.5v-331c.1-12.5-7.7-23.8-19.5-28.3zM76.6 444c-15.4 0-27.9-14-27.9-31.4 0-17.3 12.5-31.4 27.9-31.4 15.4 0 27.9 14 27.9 31.4S92 444 76.6 444zm44.8-119.5c0-17.3 12.5-31.4 27.9-31.4 15.4 0 27.9 14 27.9 31.4 0 17.3-12.5 31.4-27.9 31.4-15.4 0-27.9-14-27.9-31.4zm68.7 162.8c-15.4 0-27.9-14-27.9-31.4 0-17.3 12.5-31.4 27.9-31.4 15.4 0 27.9 14 27.9 31.4.1 17.3-12.4 31.4-27.9 31.4zm456.8-309.9c-.9-20.5-22.2-33.7-41.3-26.4l-248.9 95.5c-11.8 4.5-19.6 15.8-19.6 28.5v331c0 21.4 21.5 36.1 41.4 28.5L611 545.3c2.4-.9 4.9-1.6 7.5-1.8 15.9-1.6 28.4-15 28.4-31.4V178.9v-1.5zM464.1 487.3c-15.4 0-27.9-14-27.9-31.4 0-17.3 12.5-31.4 27.9-31.4 15.4 0 27.9 14 27.9 31.4.1 17.3-12.4 31.4-27.9 31.4zM557 366.8c-15.4 0-27.9-14-27.9-31.4S541.6 304 557 304c15.4 0 27.9 14 27.9 31.4s-12.5 31.4-27.9 31.4z"/></svg>
