<svg xmlns="http://www.w3.org/2000/svg" viewBox="0 0 650.5 785.3"><style>.st0{fill-rule:evenodd;clip-rule:evenodd;fill:#797d96}</style><path class="st0" d="M120 204.7c0 73.1 38.6 140.7 101.1 177.3 62.5 36.6 139.8 36.6 202.3 0 62.8-37 101.3-104.4 101.1-177.3C524.5 91.7 434 0 322.3 0 210.5 0 120 91.7 120 204.7zm509.9 405c-14.3-30-33.5-57.5-56.8-81.3-62.1-65.1-152-103-248.6-103.6-133.4.8-251.3 77-307.9 189.3-6 9.7-8 20.6-11.1 30.7-7.1 23-8 54 .5 74.8 8.4 20.5 23.9 37.3 44.4 48.6 20 10.9 45.5 16.4 73.7 16.9l400.8.3c28.2-.7 53.7-5.3 73.7-16.3 20.5-11.2 35.1-23.7 43.5-44.2 4.2-10.2 8.1-25.5 8.3-41 0-15-2.3-30-6.8-44.3-3.2-10.5-7.9-20.6-13.7-29.9z"/></svg>
