<svg xmlns="http://www.w3.org/2000/svg" viewBox="0 0 819.1 819.2"><style>.st0{fill-rule:evenodd;clip-rule:evenodd}</style><path class="st0" d="M300.6 205.6h206.7C571.3 205.6 620 73 620 73c0-39.7-4.2-69.8-75.2-71.9-71-2.1-88 47.4-139 47.4-52.3 0-78.4-39-143-47.4-64.6-8.5-74.9 32.2-74.9 71.9 0 0 48.8 132.6 112.7 132.6zm218 40.9h-218C59.3 246.5 0 699.8 0 699.8c0 59.6 50.5 119.4 112.7 119.4h593.7c62.3 0 112.7-59.8 112.7-119.4 0 0-59.2-453.3-300.5-453.3zm24.7 348.6c9.4-.6 18.4 4 23.3 12.1 4.9 8.1 4.9 18.2 0 26.2-4.9 8.1-13.9 12.7-23.3 12.1H436.4v66.1c0 14.5-11.8 26.3-26.3 26.3s-26.3-11.8-26.3-26.3v-66.2H276.3c-9.4.6-18.4-4-23.3-12.1-4.9-8.1-4.9-18.2 0-26.2 4.9-8.1 13.9-12.7 23.3-12.1h107.6v-32H276.3c-9.4.6-18.4-4-23.3-12.1-4.9-8.1-4.9-18.2 0-26.2 4.9-8.1 13.9-12.7 23.3-12.1H349l-74.4-126.5c-3.4-5.8-4.4-12.7-2.6-19.2 1.8-6.5 6.2-11.9 12.2-15.1 12.5-6.9 28.3-2.9 35.9 9.2l89.5 151.6h4.5L503.7 361c7.6-12.1 23.4-16.2 35.9-9.2 6 3.1 10.4 8.6 12.2 15.1 1.8 6.5.9 13.4-2.5 19.2l-74.6 126.5h68.4c9.4-.6 18.4 4 23.3 12.1 4.9 8.1 4.9 18.2 0 26.2-4.9 8.1-13.9 12.7-23.3 12.1H436.4v32.2h106.9v-.1z"/></svg>
