<svg xmlns="http://www.w3.org/2000/svg" viewBox="0 0 819.2 666.1"><style>.st0{fill-rule:evenodd;clip-rule:evenodd}</style><path class="st0" d="M418.3 376.3C474.6 340 512 277 512 204.8 512 91.6 420.4 0 307.2 0S102.4 91.6 102.4 204.8c0 72.2 37.4 135.2 93.7 171.5C81.4 414.2 0 510 0 640c0 14.3 11.3 25.6 25.6 25.6h563.2c14.3 0 25.6-11.3 25.6-25.6 0-130-81.4-225.8-196.1-263.7zm225.3 3.1c58.9-36.4 98.8-100.4 98.8-174.6C742.4 91.6 650.8 0 537.6 0 523.3 0 512 11.3 512 25.6s11.3 25.6 25.6 25.6c84.5 0 153.6 69.1 153.6 153.6 0 56.8-30.7 106-76.8 132.6-45.1 27.6-57.3 66.6 0 87.6C703.5 456.7 768 540.2 768 640.5c0 14.3 11.3 25.6 25.6 25.6s25.6-11.3 25.6-25.6c0-118.3-72.7-219.1-175.6-261.1z"/></svg>
