<svg xmlns="http://www.w3.org/2000/svg" viewBox="0 0 718.5 579.9"><style>.st0{fill-rule:evenodd;clip-rule:evenodd}</style><path class="st0" d="M341.8 2.7c-9.7-4.6-21.1-3.1-29.3 3.9L154.3 149.9l-126.1-.5h-.1c-7.3 0-14.3 2.9-19.4 8.2C3.5 162.9.6 170 .6 177.5L0 402.3c0 7.5 2.9 14.7 8 19.9 5.1 5.3 12.1 8.3 19.5 8.3h127.6l157.4 142.9c4.9 4.2 11.1 6.5 17.6 6.5 4 0 7.9-.9 11.7-2.7 9.7-4.6 15.8-14.5 15.8-25.4V28.1c0-10.9-6.1-20.8-15.8-25.4m181.7 154.4c-14.4-6.9-31.4-.6-38.4 14s-.9 32.4 13.3 39.7c1.8 1 45.4 24.1 45.4 90.1 0 70.5-40.8 93.8-42.1 94.6-14.4 7.3-20.2 25.2-13 39.9 5.1 10.4 15.4 16.5 26.1 16.5 4.5 0 9-1.1 13-3.1 3-1.6 74.3-39.3 74.3-147.9-.1-104.8-75.4-142.2-78.6-143.8m90.6-87.4c-13.4-8.8-31.2-4.8-40 8.9-8.7 13.7-4.9 32.1 8.4 41.1 3.2 2.1 77.7 54.1 77.7 183.3 0 129.6-71.5 181.5-74.4 183.5-13.4 9.1-17 27.6-8.1 41.3 5.6 8.6 14.8 13.2 24.3 13.2 5.5 0 11.2-1.7 16.1-5 4.1-2.8 100.3-70.2 100.3-233 .1-163.1-100-230.5-104.3-233.3m0 0zM462.7 350.5c-4.6 12.1-11.2 25.2-24.9 25.2-13.8 0-27.7-6.1-24.9-25.2 0 0 8.3-36.3 8.3-48.5 0-13-8.3-44.7-8.3-44.7-2.3-15.4 11.2-25.2 24.9-25.2 13.8 0 19.9 13 24.9 25.2 0 0 9.2 20.5 8.3 44.7-.9 26.1-8.3 48.5-8.3 48.5"/></svg>
