<svg xmlns="http://www.w3.org/2000/svg" viewBox="0 0 716.8 715.1"><style>.st0{fill-rule:evenodd;clip-rule:evenodd}</style><path class="st0" d="M386.6 319.2v-166c-8.2-.8-16.2-1.8-22.9-2.9v-.3H362.3 363.7v.3h-1.2s-.3.3-.5.3c-8.8 1.2-19.5 2.6-31.7 3.8v164.9H0V186.9c0-20.8 16.1-37.5 36.2-37.5h150.5c-40.4-8.8-70.7-26.7-71.9-59.7-1.1-39 41.3-101.9 103.3-87.6C282.1 17 326.8 68.3 361 112.2 395.6 67.4 444.6 9.7 511.3.6c55.8-7.3 101.9 50.4 96 88.5-5.1 33.4-35.9 51.5-75.3 60.3h148.6c20.1 0 36.2 16.7 36.2 37.5v132.3H386.6zm-54.1 395.9H63.4c-18.1 0-32.8-15.2-32.8-34.2v-335h302v369.2h-.1zm353.7-34.2c0 19.1-14.7 34.2-32.8 34.2H384.3V345.9h301.9v335zM562.6 101.1c21.2-28.1-20.4-86.7-65.1-65-42.7 20.8-73.6 54.8-100.2 88.2 22.9 2.1 46.1 2.6 69 1.5 28.1-1.3 79.9-3.3 96.3-24.7zM225 36.7c-30.9-12.6-49 .9-62 23.2-7.1 12.6-14.7 29.3-3.4 41.6 29.7 31.6 111.2 29.3 165.8 23.4C299.7 91.5 268 54.2 225 36.7z"/></svg>
