<svg xmlns="http://www.w3.org/2000/svg" viewBox="0 0 762.5 814.6"><style>.st0{fill-rule:evenodd;clip-rule:evenodd}</style><path class="st0" d="M762.5 359.8C762.5 161.1 591.8 0 381.3 0 170.7 0 0 161 0 359.8c0 198.7 170.7 359.7 381.3 359.7 34.2 0 67.2-4.6 98.8-12.6l156.7 107.7-11.5-178.5c83.8-66 137.2-165.3 137.2-276.3zM436.9 581.7L409.2 609h-62.8L326 588.9v-56l11.7-20.1h74.4l24.8 24.4v44.5zm105.1-280s-129.9 112-131.3 136.4v25.8h-73V382L453 277.2v-53.1s-40.9-68.9-113.8-20.1c0 0-37.9 28.7-48.1 89.1 0 0-91.9 51.7-80.3-48.8 0 0 35-97.7 126.9-122.1h93.4S526 149.5 542 225.6v76.1z"/></svg>
