<svg xmlns="http://www.w3.org/2000/svg" viewBox="0 0 732.2 732.2"><style>.st0{fill-rule:evenodd;clip-rule:evenodd}</style><path class="st0" d="M366.1 0C163.9 0 0 163.9 0 366.1c0 202.2 163.9 366.1 366.1 366.1 202.2 0 366.1-163.9 366.1-366.1C732.2 163.9 568.3 0 366.1 0zm197.8 443.9h-334l89.5 107.8c6.8 8.2 5.7 20.4-2.5 27.3-3.6 3-8 4.5-12.4 4.5-5.6 0-11.1-2.4-14.9-7L147.3 405.1h416.6c10.7 0 19.4 8.7 19.4 19.4s-8.7 19.4-19.4 19.4zM168.2 327c-10.7 0-19.4-8.7-19.4-19.4s8.7-19.4 19.4-19.4h334.1l-89.5-107.8c-6.8-8.2-5.7-20.4 2.5-27.3 8.2-6.8 20.5-5.7 27.3 2.5L584.9 327H168.2z"/></svg>
