<svg xmlns="http://www.w3.org/2000/svg" viewBox="0 0 714.2 713.4"><style>.st0{fill-rule:evenodd;clip-rule:evenodd}</style><path class="st0" d="M0 707c.5-6.1.9-12.3 1.4-18.4 2.3-29.7 9.1-58.2 21-85.4 13.8-31.6 33.3-59.1 58.1-83 21.6-20.8 46.1-37.5 72.6-51.4 2.6-1.4 3.8-.3 5.5 1.2 28.9 25.6 61.6 44.9 98 57.7 24.7 8.7 50.1 14 76.2 15.9 45.2 3.3 89.1-2.9 131.4-19.2 33-12.8 62.8-31 89.2-54.6 2.2-2 3.8-2.1 6.4-.8 25.6 13.3 49.3 29.2 70.4 48.9 39 36.3 64.9 80.1 76.8 132.2 3.9 17.3 6.1 34.7 6.7 52.4 0 1.5.3 3 .5 4.6v6.4H0V707z"/><path class="st0" d="M356.5 484.5c-73.6-2.7-131.5-32.7-171.7-94.3-17.4-26.6-26.6-56.3-29.1-88.1-7.4-96.2 57.2-182.5 150.7-205 68.3-16.4 130.4-1.6 183.8 44.5 35.9 30.9 58 70.5 64.2 117.5 9.7 73.9-15.4 134.7-73.1 181.7-27.8 22.7-60 35.8-95.4 41-10 1.5-20.1 1.9-29.4 2.7z"/><path class="st0" d="M116.8 181.6h6.8v181c-9.5.5-18.6-1.1-27.3-3.9C71 350.6 52 334.9 40.2 311c-17.5-35.3-8.9-79.2 20.7-105.2 4.7-4.1 10.1-7.4 15.1-11.3 1.5-1.2 3.1-2.7 3.7-4.4 25.4-66.9 69.5-117.8 131.7-152.9C243.9 18.9 278.9 7.5 316 2.7 383.3-5.9 446.8 6 505.5 40.2c59.4 34.6 101.4 84.2 126 148.5 1.1 2.9 2.7 4.9 5.4 6.5 54.9 32.8 58.7 111 7.2 148.9-15.6 11.5-33 17.7-52.4 18.4h-3.3v-181h6.8c-36-81-125.2-151.7-239.8-151.4-117.4.3-204.6 73.9-238.6 151.5z"/></svg>
