<svg xmlns="http://www.w3.org/2000/svg" viewBox="0 0 815.5 815.5"><style>.st0{fill-rule:evenodd;clip-rule:evenodd}</style><path class="st0" d="M407.7 0C182.6 0 0 182.6 0 407.7s182.6 407.7 407.7 407.7 407.7-182.6 407.7-407.7S632.9 0 407.7 0zm259.5 667.2c-33.7 33.7-73 60.2-116.7 78.7-45.2 19.1-93.3 28.8-142.8 28.8s-97.6-9.7-142.8-28.8c-43.7-18.5-82.9-44.9-116.7-78.7-33.7-33.7-60.2-73-78.7-116.7-19.1-45.2-28.8-93.3-28.8-142.8s9.7-97.6 28.8-142.8c18.5-43.7 44.9-82.9 78.7-116.7 33.7-33.7 73-60.2 116.7-78.7 45.2-19.1 93.3-28.8 142.8-28.8s97.6 9.7 142.8 28.8c43.7 18.5 82.9 44.9 116.7 78.7 33.7 33.7 60.2 73 78.7 116.7 19.1 45.2 28.8 93.3 28.8 142.8s-9.7 97.6-28.8 142.8c-18.5 43.8-45 83-78.7 116.7z"/><path class="st0" d="M373.4 568.9h52.9v57h-52.9v-57zM498.7 238.1c-24.4-22.3-57-33.4-98-33.4-38.7 0-69.8 10.4-93.3 31.1-23.5 20.8-37.7 50.7-42.4 89.7l52.9 6.3c4.6-29.1 14.2-50.6 28.9-64.3 14.7-13.7 33-20.6 54.9-20.6 22.7 0 41.8 7.6 57.4 22.7 15.6 15.1 23.4 32.7 23.4 52.7 0 11-2.7 21.2-8 30.6-5.3 9.3-16.9 21.9-34.7 37.6-17.8 15.7-30.1 27.7-37 35.9-9.3 11.2-16.1 22.4-20.3 33.4-5.7 14.7-8.6 32.1-8.6 52.3 0 3.4.1 9.4.3 16.2h49.4c.4-20.6 1.8-36.2 4.3-45.4 2.5-9.1 6.3-17.2 11.4-24.3 5.1-7 16.1-18 32.9-32.9 25-22.1 41.7-40.9 50.3-56.3 8.6-15.4 12.9-32.3 12.9-50.6-.2-31.4-12.4-58.4-36.7-80.7z"/></svg>
