<svg xmlns="http://www.w3.org/2000/svg" viewBox="0 0 707.5 819.2"><style>.st0{fill-rule:evenodd;clip-rule:evenodd}</style><path class="st0" d="M344.4 484.1H363c15.4 0 27.9 12.5 27.9 27.9v130.3c0 15.4-12.5 27.9-27.9 27.9h-18.6c-15.4 0-27.9-12.5-27.9-27.9V512c0-15.4 12.5-27.9 27.9-27.9z"/><path class="st0" d="M651.6 391v335.8c0 20.2-16.7 36.6-37.2 36.6H93.1c-20.5 0-37.2-16.4-37.2-36.6V391h595.7zm55.9-55.9H0v391.7c0 51.1 41.7 92.4 93.1 92.4h521.3c51.4 0 93.1-41.4 93.1-92.4V335.1M633 335.1h-55.9v-55.9c0-125.6-104.9-223.4-223.4-223.4-121.5 0-223.4 101.9-223.4 223.4v55.9H74.5v-55.9C74.5 127 201.5 0 353.7 0 504.1 0 633 121.8 633 279.3v55.8z"/></svg>
