<svg xmlns="http://www.w3.org/2000/svg" viewBox="0 0 519.4 620.8"><style>.st0{fill-rule:evenodd;clip-rule:evenodd}</style><path class="st0" d="M519.3 203.5c.4-38-14.5-64.5-46.9-83-61.6-35-103.6-70.3-164.6-106.2-31.5-18.4-62.1-19.4-93.8-.9-62.8 36.5-111.9 72.9-175 109.1C8.4 140 .2 166.3.1 201.4c-.2 73.8-.1 147.5.1 221.3.1 32.8 6.9 55.8 35.3 72.4 65.3 38.1 116.8 75.8 182.4 113.3 24.5 14 51.2 17.5 75.9 3.7C364 573.2 433.5 533 502.3 491.7c3.9-2.3 6.2-17.3 0-26-4.6-6.4-16.4-8.3-21.6-5.2-63.3 37.7-127.4 73.9-191 111-20.9 12.2-40.2 11.7-61.2-.7-59.3-35.1-105.3-69.4-165.3-103.3C41.2 455 30.8 440.3 31 415c.4-69 .4-138 0-207-.2-25.3 10.1-43.1 32-55.5C122.1 118.7 167.1 85 225.6 50.3c23.7-14.1 45.1-14.1 68.9.1 57.6 34.4 99.8 68.1 158.4 100.6 24.5 13.6 34.5 31.7 33.9 59.5-1.3 56.7-.8 113.5-.2 170.2.1 9.1-1.1 24.9 17.8 24.9 10.3 0 13.7-6.7 14.7-12.9-.1-33-.4-135.7.2-189.2z"/><path class="st0" d="M519.1 383v.3-.3zM322.9 179.2c-17.1 37.2-38.2 54.1-58.9 92.8-21.4-40.3-43.2-58.3-60.6-96.8-12.9-28.6-31.9-28-59-21.8 28.8 49.6 55.9 78 85.7 129.4h-71.7l1.6 32.9h97.7v51.6h-98v32.6H259l1.1 83.4h28.2V399h76l-1.7-32.2h-73.3v-53.2h75.2l-2.6-33.4h-65.5c29.9-51.1 57.2-79.5 84.9-126.8-30-9.5-46.3-.6-58.4 25.8zm196.2 204.1v9.3c.4-3.1.4-6.2 0-9.3zm0 20v-10.8V403.3z"/></svg>
