<svg xmlns="http://www.w3.org/2000/svg" viewBox="0 0 524.2 473.6"><style>.st0{fill:#d32279}</style><path class="st0" d="M443.5 422.6l-.8-4.2-31.5 6 .8 4.2c.9 4.5.2 7.9-2.1 10.7-.7.9-1.5 1.6-2.2 2.1l-72.5-.2c-6.9-2.7-11-6.4-12.7-11.4-1.2-3.6-.8-7-.6-8.2l.2-.7.2-1.5c.5-6.1 5.6-9.6 8.4-11.2l33.7-2.6-2.4-32-38.7 2.9-2.1.7c-10.3 3.7-28.5 15.9-30.9 38.3-.7 3.5-1.8 12.2 1.2 22.4 3.3 11.5 12.2 26.7 36 34.4l2.4.8 85.4.3 2.9-1.3c11.1-4.5 30.7-20.9 25.3-49.5z"/><path class="st0" d="M458.9 0H65.3C29.3 0 0 32 0 71.2v331.1c0 39.3 29.3 71.2 65.3 71.2H282v-32.1H65.3c-18.3 0-33.1-17.6-33.1-39.2v-331C32.2 49.6 47.1 32 65.3 32H459c18.3 0 33.1 17.6 33.1 39.2v280.5h32.1V71.2C524.2 32 494.9 0 458.9 0z"/><path class="st0" d="M461.1 87.6l-199 162.3-199-162.3-20.3 24.8 216.6 176.7 2.7 2.2 219.2-178.9zM522.2 408.7c-3.3-11.5-12.2-26.7-36-34.4l-2.4-.8h-83.3l-3 1.3c-11.1 4.7-30.7 21-25.3 49.7l.8 4.2 31.5-6-.8-4.2c-1.3-6.8 1.4-10.7 4.3-12.9h70.5c6.8 2.6 11 6.5 12.7 11.4 1.2 3.6.9 6.9.7 8.1l-.2.7-.2 1.5c-.5 6-5.2 9.5-8.4 11.2l-33.7 2.6 2.4 32 38.5-2.9 2.1-.7c10.4-3.7 28.6-15.9 31-38.4.6-3.5 1.7-12.2-1.2-22.4z"/></svg>
