<svg xmlns="http://www.w3.org/2000/svg" viewBox="0 0 737.4 737.3"><style>.st0{fill-rule:evenodd;clip-rule:evenodd}</style><path class="st0" d="M307.2 102.4c-84.5 0-122.9 50.5-122.9 122.9h41c1.4-51.4 34.8-80.6 81.9-81.9 41.4 1.3 59.6 23.8 61 62 0 19.7-14.3 42.8-42.8 69.1-32.9 29-38.7 50-38.7 73.6v41h41v-41c0-13.1 7-30.9 29.9-51.9 34.2-30.3 51.4-60.5 51.4-90.9-.1-60.5-36.2-102.9-101.8-102.9zM286.7 471h41v-41h-41v41zm348.2-130.7V56.7S627.2 0 573.5 0H0v586.1s7.7 47.7 81.9 48.8c74.2 1.1 225.3 0 225.3 0-8.9 1.1 327.7-294.6 327.7-294.6zM286.7 593.9s-189.5-.6-204.8 0c-47.3 1.8-41-45.7-41-45.7V37.8h532.5c26.9 0 20.5 22.4 20.5 37.8v245.8L286.7 593.9zm438-138.5L653.5 389l-12.6-11.7-12.6 11.7-53.4 49.8-195.8 182.6-3.9 3.5-1.1 4.9L348 737.3l118.2-21.5 5.3-1 3.9-3.5 195.8-182.6 53.4-49.8 12.6-11.7-12.5-11.8zM454.1 684.2l-57.5 10.7 11.5-53.7L587.4 474l46 42.9-179.3 167.3zm204.6-190.8l-46-42.9 28.3-26.3 46 42.9-28.3 26.3z"/></svg>
