<svg xmlns="http://www.w3.org/2000/svg" viewBox="0 0 586.5 716.9"><style>.st0{fill-rule:evenodd;clip-rule:evenodd}</style><path class="st0" d="M289.4 378.6c-86.8 0-157.2-71.7-157.2-160.1 0-88.4 70.4-160.1 157.2-160.1s157.2 71.7 157.2 160.1c0 88.5-70.4 160.1-157.2 160.1zm107.5 29.3c66.7-39.7 107.5-111.7 107.3-189.3C504.2 97.9 408 0 289.4 0S74.5 97.9 74.5 218.6c0 82.2 44.5 153.8 110.4 191.1C76.6 453.5 0 561.3 0 687.2c0 16.4 13.1 29.7 29.2 29.7s29.2-13.3 29.2-29.7c.2-132 105.3-239 235.1-239 128.3 0 232.6 104.6 235 234.5-1.4 8.5 1.1 17.1 6.6 23.7 5.6 6.6 13.7 10.4 22.3 10.4 16.1 0 29.2-13.3 29.2-29.7-.2-127.6-79-236.6-189.7-279.2z"/></svg>
