<svg xmlns="http://www.w3.org/2000/svg" viewBox="0 0 819.2 800.4"><style>.st0{fill-rule:evenodd;clip-rule:evenodd}</style><path class="st0" d="M432.7 423.3c64.8-38.5 108.9-112.6 108.9-197.7C541.6 101.2 447.3 0 331.4 0S121.2 101.2 121.2 225.7c0 84.9 43.9 158.9 108.5 197.5-73.2 24.6-122.3 73.2-153 116C28.7 606.3 0 694.8 0 775.9c0 13.6 11 24.6 24.6 24.6s24.6-11 24.6-24.6c0-55 17.8-138.5 67.6-208.1 36.5-50.9 103.3-111.6 214.6-111.6 193.6 0 283.8 190.8 283.8 319.7 0 13.6 11 24.6 24.6 24.6 13.6 0 24.6-11 24.6-24.6-.1-124.6-74.3-299-231.7-352.6zM170.4 225.7c0-97.3 72.2-176.5 161-176.5s161 79.2 161 176.5-72.2 176.5-161 176.5-161-79.2-161-176.5zm602.1 298.1c-35.8-61.7-94.3-97.5-136.2-116.4 42-31.7 96.7-90.6 88.6-178.6-12.3-133-132.2-169.5-137.3-171-13-3.8-26.5 3.6-30.4 16.6-3.9 13 3.6 26.6 16.5 30.5 3.8 1.1 93.1 29.2 102.3 128.4 9.5 102.5-100.9 155.3-105.6 157.5-9.5 4.4-15.2 14.3-14.2 24.6 1 10.4 8.4 19 18.6 21.5 1.1.3 106.3 27.1 155.2 111.5 41.1 70.9 40 149 40 149.7-.3 13.6 10.4 24.8 24 25.2h.6c13.3 0 24.2-10.6 24.6-24 .1-3.6 1.6-92.3-46.7-175.5z"/></svg>
