<svg xmlns="http://www.w3.org/2000/svg" viewBox="0 0 816.2 793.6"><style>.st0{fill-rule:evenodd;clip-rule:evenodd}</style><path class="st0" d="M408.1 494.8c-136.3 0-247.4-110.9-247.4-247.4S271.6 0 408.1 0c136.3 0 247.4 110.9 247.4 247.4S544.4 494.8 408.1 494.8zm0-448.3c-110.8 0-200.9 90.1-200.9 200.9s90.1 200.9 200.9 200.9c110.8 0 200.9-90.1 200.9-200.9S518.8 46.5 408.1 46.5z"/><path class="st0" d="M792.8 793.6H23.2c-6.6 0-12.8-2.8-17.2-7.5-4.4-4.8-6.6-11.3-5.9-17.7 8-87.7 54.4-168.8 130.7-228.2 75.7-59.1 174.2-91.6 277.2-91.6 103.1 0 201.5 32.6 277.2 91.6C761.6 599.8 808 680.9 816 768.4c.7 6.6-1.6 12.9-5.9 17.7-4.5 4.8-10.8 7.5-17.3 7.5zM50.1 747.1h716c-28-143.4-179.7-252.3-358-252.3-178.4 0-330 109-358 252.3z"/><path class="st0" d="M408.1 717.3c-6.4 0-12.6-2.6-17-7.4l-47.2-50.8c-1-.8-2-1.6-2.9-2.8-4.4-4.9-6.6-11.3-5.9-17.9L346.6 523c1.1-11.8 11.1-20.8 23.1-20.8h73.7c11.8 0 21.6 8.7 23.1 20.3L480.7 638c.8 6.6-1.3 13.3-5.7 18.2-1 1-2 2-3.1 2.9l-47.2 50.8c-4 4.8-10.2 7.4-16.6 7.4zm-25.7-84.9l25.6 27.5 25.4-27.4-10.4-83.8h-32.3l-8.3 83.7z"/></svg>
