<svg xmlns="http://www.w3.org/2000/svg" viewBox="0 0 689.5 722.6"><style>.st0{fill-rule:evenodd;clip-rule:evenodd}</style><path class="st0" d="M571.4 456.5c19.9 0 24.9-5.1 24.9-24.9 0-11.5-8.1-20.9-16.5-27.5l-1.6-1.6c-27.7-21.4-56.6-41.8-89.9-54.5 42.3-36.3 69.2-90.1 69.2-150.1C557.6 88.6 468.9 0 359.7 0 250.5 0 161.9 88.6 161.9 197.8c0 60.1 26.9 113.9 69.2 150.1C96.1 399.8.1 530.2 0 683.5v.1c.1 19.8 8.8 34.6 28.5 34.6 19.9 0 21.3-14.3 21.4-34.1 0-158.7 95.4-308.6 309.8-305.1 65.1 1.1 141.3 26.1 187.8 64.8 12.6 10.5 15.4 10.7 21 12.3l2.9.4zM359.7 340.6c-102.2-.2-151.3-73.3-151.3-142.7 0-69.4 56.1-150.7 151.5-150.7 110.8 0 151.5 82.1 151.5 151.5s-64.5 144.5-151.7 141.9zm66 211c0 19.9 16.1 29.4 36 29.4h191.9c19.9 0 36-9.5 36-29.4s-16.1-27.5-36-27.5h-192c-19.8 0-35.9 7.6-35.9 27.5zm227.8 117H461.6c-19.9 0-36 7-36 26.9s16.1 27.1 36 27.1h191.9c19.9 0 36-7.2 36-27.1 0-19.9-16.1-26.9-36-26.9z"/></svg>
