<svg xmlns="http://www.w3.org/2000/svg" viewBox="0 0 858.9 858.9"><path d="M858.9 449.3v-19.8c0-57.9-11.3-114.1-33.7-167-21.6-51.2-52.6-97.1-92.1-136.6-39.5-39.5-85.4-70.5-136.6-92.1C543.6 11.3 487.4 0 429.4 0s-114.1 11.3-167 33.7c-51.2 21.6-97.1 52.6-136.6 92.1s-70.5 85.4-92.1 136.6C11.3 315.3 0 371.5 0 429.4s11.3 114.1 33.7 167c21.6 51.2 52.6 97.1 92.1 136.6 39.5 39.5 85.4 70.5 136.6 92.1 52.9 22.4 109.1 33.7 167 33.7 62.2 0 122.1-13 178.2-38.6 44.6-20.4 84.9-47.8 119.8-81.7l60.5 44.9 7.4-222.8-200.5 80.2 52.4 38.7c-24.5 21.4-51.5 38.9-80.7 52.2-43 19.6-89.3 29.6-137.7 29.6-44.7 0-88.2-8.8-129.1-26.1-39.5-16.7-75-40.7-105.5-71.2C131.5 601.4 97 518 97 429.4c0-44.7 8.8-88.2 26.1-129.1 16.7-39.5 40.7-75 71.2-105.5 62.7-62.7 146-97.2 234.6-97.2 44.7 0 88.2 8.8 129.1 26.1 39.5 16.7 75 40.7 105.6 71.2 62.9 62.6 97.5 145.9 97.5 234.6v19.8h97.8z"/><path d="M610.9 245.2H510.2l-65.5 101.3c-5.2 8.2-9.9 15.6-13.9 22.2-15-24.8-38.5-61.6-73-114.8l-5.7-8.7H248.9l104.6 150.7h-68.3v71.5h100.5v7.5H285.2v71.9h100.5v66.9h88.2v-66.9h97v-71.9h-97v-7.5h97v-71.5h-65.6l105.6-150.7z"/></svg>
