<svg xmlns="http://www.w3.org/2000/svg" viewBox="0 0 695.8 549.8"><style>.st0{fill-rule:evenodd;clip-rule:evenodd}</style><path class="st0" d="M634.4 58.6h-81.5V21.8v-1.3c0-11.3-9.2-20.5-20.5-20.5S512 9.2 512 20.5V58.6H184.5V21.8v-1.3C184.5 9.2 175.3 0 164 0s-20.5 9.2-20.5 20.5V58.6H61.4C27.5 58.6 0 86.2 0 120v368.4c0 33.9 27.5 61.4 61.4 61.4h573.1c33.9 0 61.4-27.5 61.4-61.4V120c-.1-33.8-27.6-61.4-61.5-61.4zm0 40.9c11.3 0 20.5 9.2 20.5 20.5v64.7h-102V99.5h81.5zm-122.4 0v85.1H184.5V99.5H512zm-450.6 0h82.2v85.1H40.9V120c0-11.3 9.2-20.5 20.5-20.5zm573 409.4h-573c-11.3 0-20.5-9.2-20.5-20.5V225.6h614v262.8c0 11.3-9.2 20.5-20.5 20.5z"/></svg>
