<svg xmlns="http://www.w3.org/2000/svg" viewBox="0 0 673.4 742.2"><style>.st0{fill-rule:evenodd;clip-rule:evenodd}</style><path class="st0" d="M336.7 742.2l-6.4-2.3C208.6 695.5 109.9 607.2 52.4 491.2c-57.2-115.5-68-247-30.4-370.1l4-13.2h13.8C144 107.7 242.6 73.5 325.1 9l11.5-9 11.5 9c82.2 64.5 181 98.7 285.6 98.9h13.8l4 13.2C689 244.2 678.2 375.7 621 491.2c-57.5 116-156.2 204.3-277.9 248.6l-6.4 2.4zM53.9 144.9c-63.3 230.7 58.8 472.4 282.8 557.6 224.1-85.2 346.2-326.9 282.8-557.6-52.1-1.5-103.1-11-152-28.3-46.9-16.6-90.9-39.9-131-69.6-40.2 29.6-84.1 53-130.9 69.5-48.7 17.4-99.7 26.9-151.7 28.4zM302.7 508c-4.8 0-9.5-1.8-13.2-5.5L184.2 397.2c-7.3-7.3-7.3-19.1 0-26.3 7.3-7.3 19.1-7.3 26.3 0l92.1 92.1 197.5-197.5c7.3-7.3 19.1-7.3 26.3 0 7.3 7.3 7.3 19.1 0 26.3L315.8 502.5c-3.6 3.6-8.4 5.5-13.1 5.5z"/></svg>
