<svg xmlns="http://www.w3.org/2000/svg" viewBox="0 0 681.3 792.3"><style>.st0{fill-rule:evenodd;clip-rule:evenodd}</style><path class="st0" d="M332.8 408.4c114.5 0 208-91.5 208-204.4 0-112.5-93.1-204-208-204s-208 91.5-208 204c0 112.9 93.5 204.4 208 204.4zm0-370.8c93.5 0 169.5 74.5 169.5 166s-76.1 166-169.5 166-169.1-74.5-169.1-166c-.1-91.5 76-166 169.1-166zM418.7 444.5H262.6C117.7 444.5 0 560.1 0 702.3v15.4c0 74.5 116.1 74.5 262.6 74.5h156.1c141 0 262.6 0 262.6-74.5v-15.4c0-142.2-117.6-257.8-262.6-257.8zm227 274.9c0 30.9-116.5 33.7-225.4 33.7H261.1c-123.2 0-225.4-2.4-225.4-33.7V704c0-121.6 101-220.6 225.4-220.6h158.8c124.4 0 225.4 99 225.4 220.6v15.4h.4z"/></svg>
