<svg xmlns="http://www.w3.org/2000/svg" viewBox="0 0 716.4 504.1"><style>.st0{fill-rule:evenodd;clip-rule:evenodd}</style><path class="st0" d="M358.2 0c-55.2 0-112.7 12.4-166 36.7l58.7 58.7c29.9-22.4 67-35.7 107.3-35.7 98.9 0 179.1 80.2 179.1 179.1 0 40.2-13.3 77.4-35.7 107.3l66.5 66.5c66.3-42.1 121.5-102.3 148.2-173.8C662.9 96.6 507.1 0 358.2 0zM571 465.9L111.7 6.6C103-2.1 88.8-2.1 80 6.6c-8.7 8.7-8.7 22.9 0 31.6l40.7 40.7C68.8 117.8 25.7 171.1 0 238.8c73.9 161.3 210.5 238.8 358.2 238.8 44 0 90.1-9.5 134.4-26.8l46.8 46.8c4.4 4.4 10.1 6.6 15.8 6.6 5.9 0 11.6-2.3 15.8-6.6 8.7-8.8 8.7-23 0-31.7zm-212.8-48c-98.9 0-179.1-80.2-179.1-179.1 0-29.5 7.1-57.3 19.7-81.8l45.6 45.6c-3.7 11.7-5.6 23.9-5.6 36.2 0 65.9 53.4 119.4 119.4 119.4 12.6 0 24.8-2 36.2-5.6l45.6 45.6c-24.5 12.6-52.3 19.7-81.8 19.7z"/><path class="st0" d="M462.5 180.6c-6.4 4.8-14.2 7.3-22.2 7.3-20.6 0-37.3-16.7-37.3-37.3 0-7.1 2-14 5.8-20-15.4-7.2-32.5-11.2-50.6-11.2-23.7 0-45.8 7-64.4 18.9l164.8 164.8c11.9-18.6 18.9-40.6 18.9-64.3.1-21.1-5.4-41-15-58.2z"/></svg>
