<svg xmlns="http://www.w3.org/2000/svg" viewBox="0 0 716.4 477.6"><style>.st0{fill-rule:evenodd;clip-rule:evenodd}</style><path class="st0" d="M358.2 0C217 0 60.3 79.7 0 238.8c73.9 161.3 210.5 238.8 358.2 238.8 141.5 0 305.4-97.5 358.2-238.8C662.9 96.6 507.1 0 358.2 0zm0 417.9c-98.9 0-179.1-80.2-179.1-179.1 0-98.9 80.2-179.1 179.1-179.1 98.9 0 179.1 80.2 179.1 179.1 0 98.9-80.2 179.1-179.1 179.1z"/><path class="st0" d="M462.4 180.5c-6.2 4.6-13.8 7.4-22.1 7.4-20.6 0-37.3-16.7-37.3-37.3 0-7.3 2.2-14.1 5.8-19.9-15.4-7.2-32.5-11.4-50.6-11.4-65.9 0-119.4 53.5-119.4 119.4s53.4 119.4 119.4 119.4c65.9 0 119.4-53.5 119.4-119.4 0-21.1-5.6-40.9-15.2-58.2z"/></svg>
