<svg xmlns="http://www.w3.org/2000/svg" viewBox="0 0 611.2 714.4"><style>.st0{fill-rule:evenodd;clip-rule:evenodd}</style><path class="st0" d="M567.7 223.9c-24 0-43.5 19.8-43.5 44.1v172.5c0 24.4 19.5 44.1 43.5 44.1s43.5-19.8 43.5-44.1V268c0-24.4-19.5-44.1-43.5-44.1zM0 440.5c0 24.4 19.5 44.1 43.5 44.1S87 464.8 87 440.5V268c0-24.4-19.5-44.1-43.5-44.1S0 243.6 0 268M113.1 225.2v315.2c0 18.7 15.2 33.9 33.9 33.9h38.7v96c0 24.4 19.5 44.1 43.5 44.1s43.5-19.8 43.5-44.1v-96h67.6v96c0 24.4 19.5 44.1 43.5 44.1s43.5-19.8 43.5-44.1v-96H466c18.7 0 33.9-15.2 33.9-33.9V225.2H113.1zM397.3 61.9L433 10c2.1-3.1 1.6-7.1-1.2-9-2.8-1.9-6.7-1-8.9 2.1L385.8 57c-24.5-9.6-51.6-15-80.2-15s-55.8 5.4-80.2 15L188.2 3.1c-2.1-3.1-6.1-4-8.9-2.1-2.8 1.9-3.3 6-1.2 9l35.7 51.9c-56.8 26.4-96.6 76.6-101.7 135.2H499c-5.1-58.6-44.9-108.8-101.7-135.2zM224 143.6c-11.8 0-21.4-9.6-21.4-21.4 0-11.8 9.6-21.4 21.4-21.4 11.8 0 21.4 9.6 21.4 21.4 0 11.8-9.6 21.4-21.4 21.4zm165.8 0c-11.8 0-21.4-9.6-21.4-21.4 0-11.8 9.6-21.4 21.4-21.4 11.8 0 21.4 9.6 21.4 21.4 0 11.8-9.5 21.4-21.4 21.4z"/></svg>
