<svg xmlns="http://www.w3.org/2000/svg" viewBox="0 0 647.9 795.6"><style>.st0{fill-rule:evenodd;clip-rule:evenodd}</style><path class="st0" d="M541.1 422.7c-1-100.8 82.2-149.1 85.9-151.5-46.7-68.4-119.5-77.8-145.5-78.9-62-6.2-120.9 36.5-152.3 36.5-31.4 0-79.9-35.5-131.3-34.6-67.5 1-129.8 39.3-164.6 99.8-70.2 121.8-18 302.2 50.4 400.9 33.4 48.3 73.3 102.6 125.6 100.7 50.4-2 69.4-32.6 130.3-32.6s78 32.6 131.4 31.6c54.2-1 88.6-49.3 121.8-97.8 38.4-56.1 54.2-110.4 55.1-113.1-1.2-.6-105.8-40.6-106.8-161zM440.9 127c27.8-33.7 46.5-80.4 41.4-127-40 1.6-88.5 26.6-117.2 60.2-25.8 29.8-48.3 77.4-42.2 123.1 44.6 3.5 90.2-22.7 118-56.3z"/></svg>
