<svg xmlns="http://www.w3.org/2000/svg" viewBox="0 0 716.8 716.8"><style>.st0{fill-rule:evenodd;clip-rule:evenodd}</style><path class="st0" d="M387.4 540.7c-85.2 2.6-187.1-6.2-297.8-40.8l12.8-45s115.9 40.9 286.9 35.2c1.9-26.5 4.6-54 10-83.4h-128S261.6 268.6 357.2 92H0v536.6h392.4c-3.1-25-5-54.9-5-87.9zM133.1 178.9h46.2v92h-46.2v-92zM481.3 0h-66.5s-46.1 66.4-56.3 92h61.4c-.1 0 15.3-35.8 61.4-92zm235.5 91.9h-296c-35.5 62.9-76.3 153.8-93.1 260.7H471s-13.9 54.1-18.7 133.4c52.3-5.1 108.3-14.6 167.1-31.1l15.4 41s-70.8 29-183.9 40.7c0 28.9 1.3 59.9 5.2 92.1l260.6-.1.1-536.7zM583.5 270.8h-46v-92h46v92zm-173.9 446H472c-5.4-24.3-15.8-88.2-15.8-88.2h-64c6.7 46.6 17.4 88.2 17.4 88.2z"/></svg>
