<svg xmlns="http://www.w3.org/2000/svg" viewBox="0 0 712.3 819.2"><style>.st0{fill-rule:evenodd;clip-rule:evenodd}</style><path class="st0" d="M712.3 69.1v417.5c0 25-5.9 49.9-17.8 74.7-11.9 24.8-27.4 48.8-46.7 72.1-19.2 23.3-41.2 45.3-65.9 66.1-24.7 20.8-49.8 39.3-75.2 55.6-25.4 16.3-50.1 29.8-74.1 40.6-24 10.8-45 18.1-63 22.2l-8.5 1.5-7.8-1.5c-18.5-4-40-11.4-64.5-22.2-24.5-10.8-49.9-24.3-76.2-40.6-26.4-16.2-52.2-34.8-77.6-55.6-25.4-20.8-48.1-42.8-68-66.1-19.9-23.3-36.1-47.3-48.4-72.1C6.2 536.5 0 511.6 0 486.6V69.1l29.2-4.5L356.9 0 691 64.6l21.3 4.5zM357 60.4l-4-.8L71.8 110v263.4H357v-313zm283.5 313H357v374.9c18.2-4.4 38.1-11.1 59.5-20.2s42.6-19.8 63.4-32.2c20.9-12.4 41-26.1 60.3-41.3 19.3-15.1 36.4-31.4 51.3-48.8 14.9-17.3 26.7-35.3 35.6-54.1 8.9-18.7 13.3-37.7 13.3-57V373.4h.1z"/></svg>
