<svg xmlns="http://www.w3.org/2000/svg" viewBox="0 0 674.7 513"><style>.st0{fill-rule:evenodd;clip-rule:evenodd}</style><path class="st0" d="M669.6 162.5c-11.4-24.2-32.1-36.2-59-36.6-35-.3-129.6-.1-164.6-.1H268.4c9.6-8.4 17.8-15.8 26.5-22.8 33.4-27.2 28.9-77.7-15.9-97.1-25.7-11.2-50.4-6.2-71.7 12.5-39.1 34.2-78 68.5-116.8 102.8-3.8 3.3-7.3 4.9-12.5 4.9-23.9-.2-47.8 0-71.7-.2-4.4 0-6.3.7-6.3 5.8.1 113.8.1 227.8 0 341.8 0 4.3 1.1 5.4 5.4 5.4 24.9-.1 49.8 0 74.7-.1 4.5 0 8.4.9 12.2 2.9 17.7 9.7 35.5 19.1 53.3 28.7 3.3 1.8 6.6 2.6 10.4 2.6h188.7c6.9 0 13.4-1.1 20-2.8 32.9-8 44.8-33.2 43.1-57.5-.9-10.6-4.8-20.1-11.2-28.7 22-6.3 39.3-17.7 47.2-39.4 8-22.3 1.8-42-14.2-58.3 31.6-21.6 39.1-48.8 20.9-82.7h157.4c7.3 0 14.6-.6 21.7-2.9 35.9-10.7 54.8-46.8 40-78.2zm-592.4 284c0 5.1-1.3 6.4-6.3 6.3-13.2-.3-26.6-.2-39.8 0-3.8.1-4.7-1-4.7-4.8.1-97.4.1-194.9 0-292.2 0-3.9 1-5.1 5-5 13.5.2 27 .2 40.5 0 4.4-.1 5.3 1.2 5.3 5.4-.1 48.5-.1 96.8-.1 145.3 0 48.2-.2 96.7.1 145zm570.9-263.9c-1.4 13.2-14 25.9-28.9 28.7-4 .7-8.1 1-12.1 1-48.1.1-156.3.1-204.4-.1-5.1 0-7.1 1.3-6.3 6.4.1.7 0 1.6 0 2.4 0 5.1-1.4 10.7.3 15.2 1.9 4.9 8.9 2.4 13.4 4.6 5 2.3 10 4.8 14 8.6 15.6 14.7 12.2 37.8-6.9 49-8.7 5-18.2 6-27.8 5.3-4.7-.2-7 .8-6.1 5.9.1 1 0 2.1 0 3.1 0 5.1-1.3 10.6.3 15.2 2 5.3 8.8 2.2 13.3 4.4 5.5 2.9 11 5.3 15.3 10 21 22.6.9 47.9-18.7 52-10.9 2.3-21.9.7-32.9 1.3-4.9.2-11.2-2.1-14 .9-3.1 3-.6 9.3-1 14.1v.6c0 9.6 0 9.4 9 11.7 7.9 1.9 15.1 5.5 20.4 11.7 6.9 8.1 10.9 17.4 6.9 28.2-4.7 12.9-14.2 20.6-27.5 23.4-3.5.7-7.2 1-10.9 1.1-60.3 0-120.5 0-180.7.1-3.5 0-6.7-.7-9.8-2.5-15.2-9.1-30.4-18.3-45.7-27.2-3.2-1.8-4.6-3.7-4.6-7.5.1-101.5.1-203 0-304.5 0-3.2.5-5.6 3.2-8 39.4-34.5 78.8-69.4 118.2-104 13.5-11.9 28.9-13.8 45.1-7.8C293 34.8 297.8 61 278.9 78c-22.3 20.1-44.8 39.8-67.4 59.7-3.1 2.9-6.3 5.6-10.7 9.8h407c6.2 0 12.1.6 18.1 3.1 14.8 5.5 23.7 18.2 22.2 32z"/></svg>
