<svg xmlns="http://www.w3.org/2000/svg" viewBox="0 0 819.2 819.2"><style>.st0{fill-rule:evenodd;clip-rule:evenodd}</style><path class="st0" d="M409.6 819.2C183.4 819.2 0 635.8 0 409.6S183.4 0 409.6 0s409.6 183.4 409.6 409.6-183.4 409.6-409.6 409.6zM177.1 448.4v.5-.5zM334 232.6c-11.8-11.8-28.4-18.7-45.1-18.7s-33.3 6.9-45.1 18.7c-11.8 11.8-18.7 28.4-18.7 45.1s6.9 33.3 18.7 45.1c11.8 11.8 28.4 18.7 45.1 18.7s33.3-6.9 45.1-18.7c11.8-11.8 18.7-28.4 18.7-45.1s-6.9-33.3-18.7-45.1zm249.9 0c-11.8-11.8-28.4-18.7-45.1-18.7-16.7 0-33.3 6.9-45.1 18.7-11.8 11.8-18.7 28.4-18.7 45.1s6.9 33.3 18.7 45.1c11.8 11.8 28.4 18.7 45.1 18.7 16.7 0 33.3-6.9 45.1-18.7 11.8-11.8 18.7-28.4 18.7-45.1s-6.9-33.3-18.7-45.1zm36 215.7H199.3c-12.2 0-22.1 9.9-22.1 22.1 0 3.4.8 6.5 2.2 9.4 16.1 120 123.5 180.4 230.3 178.7v.2C516.5 660.4 624 599.9 640 479.8c1.3-2.9 2.1-6 2.1-9.4 0-12.1-9.9-22.1-22.2-22.1zm22.2.1v0z"/></svg>
