<svg xmlns="http://www.w3.org/2000/svg" viewBox="0 0 648.5 619.9"><style>.st0{fill-rule:evenodd;clip-rule:evenodd}</style><path class="st0" d="M608.8 455.8l-52.4-46.5c15.3-31.5 23.9-66.8 23.9-104.2 0-120.3-89.1-219.6-204.8-236.2V0c153.5 17 273 147.1 273 305.2 0 54.8-14.6 106.1-39.7 150.6zM307.2 24.6v163.8L219.9 111l87.3-86.4zm68.3 154.1c50 20.3 85.3 69.2 85.3 126.5 0 6.2-.6 12.2-1.4 18.2L375.5 249v-70.3zm224.9 441.2l-76.7-68c-42.4 31.4-93 52.4-148.2 58.5v-69c34.9-5 67-18 95.3-36.4l-87.4-77.4c-2.7 1.3-5.2 2.9-7.9 4v-11l-68.3-60.5v218L144.5 424.7H0v-239h110.1l-105-93 45.3-51 595.3 527.1-45.3 51.1z"/></svg>
