<svg xmlns="http://www.w3.org/2000/svg" viewBox="0 0 543.8 750.9"><style>.st0{fill-rule:evenodd;clip-rule:evenodd;fill:#272536}</style><path class="st0" d="M543.8 451.5v35.6c-.5 1.7-1.2 3.5-1.5 5.2-3.6 18.8-5.7 38.1-11.2 56.4-16.3 53.9-46.8 98.9-89.6 135.5-33 28.3-70.1 48.7-112.6 58.8-14 3.3-28.3 5.3-42.4 7.8h-35.6c-1.7-.5-3.5-1.3-5.3-1.5-37.6-2.3-73.2-12.1-106.6-29.2C75.8 687.9 30.3 640 9.4 571.1c-4.5-14.6-6.3-30-9.4-45.1v-34c1.3-8.4 2.5-16.8 4.1-25.1 6.7-36.5 22.9-68.8 44.4-98.6 20.2-28.1 41.7-55.2 60.9-84 20.8-31.2 30.8-65.9 24.9-103.8-1.2-7.5-2.2-15-3.4-22.5.8-.2 1.5-.4 2.3-.6 46.3 48.6 53.9 108.2 47.3 172.6 1.7-1.8 3.1-3.1 4.2-4.5 39.3-53.2 56.2-112 43.4-177.8-8.2-41.9-25.8-79.5-54.9-110.8-12.7-13.5-28-24.6-42.1-36.9h14.6c1.2.5 2.3 1.3 3.5 1.5 25.6 2.2 49.7 10.1 72.7 21.2 52.5 25.4 95 63 130.6 108.8 52.3 67.4 86.3 142.2 93 228.3 2.6 32.9-.8 64.8-9.5 96.3-3.3 11.9-8 23.5-12.2 35.9 17-7.2 29.9-18.3 39.8-32.6 29.7-42.8 38-90.5 31.3-143.3 2.2 2.5 3.3 3.5 4.1 4.8 17.9 28.3 31.3 58.4 38.3 91.2 2.7 13 4.3 26.3 6.5 39.4zm-280-62.7c-.7.5-1.4 1-2.1 1.4-.9 13-1.6 26-2.9 39-1.9 19.8-6.6 39-15.9 56.7-11.3 21.8-30.3 35.3-51.3 46.1-22.7 11.7-36.9 28.4-38.8 54.8-1.9 27.1 6.2 49.9 28.1 66.6 20.5 15.6 44.4 20.7 69.8 19.8 40.5-1.3 70.7-20.6 82.8-61.1 8.7-29.1 7.3-58.4 1.5-87.7-7.9-40.1-22.5-77.6-47.3-110.3-7.1-9.1-15.9-16.9-23.9-25.3z"/></svg>
