<svg xmlns="http://www.w3.org/2000/svg" viewBox="0 0 423.9 257.3"><style>.st0{fill-rule:evenodd;clip-rule:evenodd}</style><path class="st0" d="M388.3 0h-353C16 0 0 15.7 0 35.1v187.1c0 19.1 16 35.1 35.3 35.1h353.2c19.4 0 35.3-15.7 35.3-35.1V35.1C423.7 15.7 407.7 0 388.3 0zm-239 165.7H136c-1.7-3.4-2.9-5.9-6.4-10.8L90.8 96.5c-1-1.5-4.9-8.3-6.6-11.5.5 5.6.7 11.5.7 14.7v51.8c0 6.4.2 10.3 1 14.5H74.6c.7-3.9 1-8.1 1-14.5V87.1c0-5.6-.2-9.3-1-13.5h12.8c1 2.7 2.7 5.4 6.1 10.8l38.3 57.4c1.2 2 4.9 8.1 7.9 13.3-.5-9.8-.7-15-.7-16.2V87.6c0-5.9-.2-9.8-1-14h11.3c-.7 4.4-1 7.9-1 14v64.6c0 5.9.2 9.6 1 13.5zm81.2 1c-3.9-.5-7.1-.7-13.5-.7h-35.6c-5.9 0-9.3 0-13.3.2.7-4.7 1-8.3 1-14.5V87.1c0-5.2-.2-8.6-1-13.7 4.2.2 7.6.2 13.3.2H216c5.4 0 9.6-.2 13.5-.7V83c-4.2-.5-7.6-.7-13.5-.7h-37.3v30.9h31.9c5.4 0 9.1-.2 13.5-.7v10.1c-4.2-.5-7.4-.7-13.5-.7h-31.9v35.6h38.5c5.6 0 9.1-.2 13.5-.7v10.1h-.2v-.2zm122-79.3l-19.4 66.3c-2.7 9.3-2.7 9.3-3.2 12h-9.6c-.5-2.5-1.5-6.9-3.2-11.5l-16-52.3c-1.5-5.2-2.7-9.3-3.4-14-.2.7-.5 1.5-.5 2-.7 3.2-2.5 9.6-3.2 11.8L278 154c-2 6.6-2.5 8.6-3.2 11.5h-9.1c-.2-2.2-.2-2.2-3.2-12l-19.1-66.3c-2-6.6-2.9-9.8-4.9-13.7h12.3c.2 3.7 1 7.6 2.2 12.5l14.2 52.5c.7 2.9 1.5 6.4 3.2 13.7 1.2-4.9 2.7-10.6 3.7-13.7l16.2-53c1.2-4.4 2.5-9.1 2.7-11.8h9.1c.5 3.7 1.5 7.4 2.9 11.8l16.2 53c.7 2.7 1.2 4.4 3.7 14l3.2-14 14.2-52.3c1.2-4.7 2-9.1 2.2-12.5h12c-1 3.9-2 6.8-4 13.7z"/></svg>
