<svg xmlns="http://www.w3.org/2000/svg" viewBox="0 0 695.8 499.4"><style>.st0{fill-rule:evenodd;clip-rule:evenodd}</style><path class="st0" d="M642.6 0H53.2C23.9 0 0 23.9 0 53.2v393c0 29.3 23.9 53.2 53.2 53.2h589.4c29.3 0 53.2-23.9 53.2-53.2v-393C695.8 23.9 672 0 642.6 0zM53.2 40.9h589.4c6.8 0 12.3 5.5 12.3 12.3v77.2L351.1 257 40.9 129.8V53.2c0-6.8 5.5-12.3 12.3-12.3zm589.4 417.5H53.2c-6.8 0-12.3-5.5-12.3-12.3v-272l302.5 124c.1 0 .2.1.3.1.1 0 .2.1.4.1.4.2.8.3 1.2.4.4.1.9.2 1.3.3.1 0 .2 0 .2.1.9.2 1.8.3 2.7.4h.3c.5 0 .9.1 1.3.1s.9 0 1.4-.1h.3c.9-.1 1.8-.2 2.7-.4.1 0 .2 0 .2-.1.9-.2 1.7-.5 2.6-.8.1 0 .2-.1.3-.1.1-.1.3-.1.4-.2l295.8-123.3V446c.1 6.9-5.4 12.4-12.2 12.4z"/></svg>
