<svg xmlns="http://www.w3.org/2000/svg" viewBox="0 0 820 769.4"><style>.st0{fill-rule:evenodd;clip-rule:evenodd}</style><path class="st0" d="M696.5 352.7c-5.9 0-11.3 2.4-15.2 6.4-3.9 3.9-6.3 9.3-6.3 15.1v202.7c0 5.8 2.5 11.2 6.4 15.1h-.1l.1.1c3.9 3.9 9.3 6.3 15.2 6.3h58.8c5.8 0 11.2-2.5 15.1-6.4l.1.1.1-.1c3.9-3.9 6.3-9.3 6.3-15.1V374.2c0-5.5-2.1-10.5-5.5-14.3l-.9-.8c-3.9-3.9-9.3-6.4-15.2-6.4h-58.9zM466.4 662c-.8-.4-1.6-.9-2.3-1.4-8-4.2-17-4.9-25.2-2.7-8.6 2.3-16.4 7.9-21.2 16.2h-.1c-3 5.2-4.4 10.9-4.6 16.5v1.7c.1 2.8.5 5.6 1.2 8.3 2.2 8.2 7.3 15.6 14.9 20.4.9.4 1.8 1 2.7 1.5 8 4.2 17 4.9 25.2 2.7 8.3-2.2 15.7-7.5 20.6-15.2.5-.8.9-1.6 1.4-2.3 4.1-8 4.8-17 2.7-25.1-2.2-8.3-7.5-15.8-15.3-20.6zm20.6-37.8c18.6 10.8 31.2 28 36.3 47.3 5.1 19.1 3 40.3-7.8 58.9l-.1.1h.1c-10.8 18.6-28.1 31.1-47.3 36.2-19.2 5.2-40.4 3-59.1-7.8l-.5-.3c-18-10.5-30.2-27.1-35.6-45.6H234.8c-.8 0-1.7-.1-2.5-.1-48-1.4-115.6-15.5-164.7-46.9C28.2 640.8 0 604.5 0 554.8V374.2c0-17.7 7.3-33.9 19-45.6 11.7-11.7 27.9-18.9 45.7-18.9h9.2c7.1-81.8 43.4-155.3 98.3-210.2C233.7 38 318.7 0 412.6 0s179 38 240.5 99.4c54.9 54.8 91 128.3 98.2 210.2h4c17.8 0 34 7.3 45.6 19 .5.5.9 1 1.4 1.5 10.9 11.7 17.7 27.2 17.7 44.1v202.7c0 17.6-7.3 33.7-19.1 45.4l.1.1c-11.7 11.7-28 19.1-45.6 19.1h-58.8c-17.6 0-33.8-7.3-45.6-19.1v.1c-11.7-11.7-19-27.8-19-45.6V374.2c0-17.7 7.3-33.9 19-45.6 11.7-11.7 27.9-18.9 45.7-18.9h11.6c-7.1-69.9-38.5-132.6-85.6-179.7-53.7-53.6-128-86.8-210-86.8s-156.2 33.2-210 86.8c-47.1 47-78.5 109.8-85.5 179.7h6.3c17.8 0 34 7.3 45.6 19 .5.5 1 1 1.4 1.5 10.9 11.7 17.7 27.2 17.7 44.1v182.9c0 11.9-9.6 21.6-21.5 21.6s-21.5-9.7-21.5-21.6v-183c0-5.5-2.2-10.5-5.6-14.3l-.9-.8c-3.9-3.9-9.3-6.4-15.2-6.4H64.7c-5.9 0-11.3 2.4-15.2 6.4-3.9 3.9-6.3 9.3-6.3 15.1v180.6c0 32.6 19.9 57.3 47.8 75.1 42 27 100.7 39 142.6 40.2l1.3-.1h138.3c1.7-5.9 4.2-11.7 7.4-17.3v-.1c10.8-18.6 28-31.1 47.3-36.3 19.2-5.1 40.5-2.9 59.1 7.9z"/></svg>
