<svg xmlns="http://www.w3.org/2000/svg" viewBox="0 0 846.5 819.1"><style>.st0{fill-rule:evenodd;clip-rule:evenodd}</style><path class="st0" d="M518.8 810.9v-56.3c156.5-37 273-177.3 273-345.1s-116.6-308-273-345.1V8.2c186.9 38 327.7 203.2 327.7 401.3 0 198.2-140.8 363.5-327.7 401.4zM54.6 573.4C24.4 573.4 0 549 0 518.8V300.4c0-30.1 24.4-54.6 54.6-54.6h136.5L436.9 0v819.1L191.1 573.4H54.6zm327.7 109.2v-546L218.4 300.4H54.6v218.4h163.8l163.9 163.8zm273-286.7c0 94.1-56.1 174.9-136.5 211.3V545c49.1-31.6 81.9-86.4 81.9-149.2 0-62.7-32.8-117.6-81.9-149.1v-62.2c80.4 36.6 136.5 117.4 136.5 211.4z"/></svg>
