<svg xmlns="http://www.w3.org/2000/svg" viewBox="0 0 769.7 610.1"><style>.st0{fill-rule:evenodd;clip-rule:evenodd}</style><path class="st0" d="M352.7 325.6H154.4c-11.3 0-20.5-9.2-20.5-20.5s9.2-20.5 20.5-20.5h198.3c11.3 0 20.5 9.2 20.5 20.5s-9.2 20.5-20.5 20.5zM622.2 325.6H485.4c-11.3 0-20.5-9.2-20.5-20.5s9.2-20.5 20.5-20.5h136.7c11.3 0 20.5 9.2 20.5 20.5s-9.1 20.5-20.4 20.5zM352.7 446.5H154.4c-11.3 0-20.5-9.2-20.5-20.5s9.2-20.5 20.5-20.5h198.3c11.3 0 20.5 9.2 20.5 20.5-.1 11.3-9.2 20.5-20.5 20.5z"/><path class="st0" d="M660.6 0H109.2C49 0 0 49 0 109.2V501c0 60.2 49 109.2 109.2 109.2h551.4c60.2 0 109.2-49 109.2-109.2V109.2C769.7 49 720.7 0 660.6 0zM109.2 40.9h551.4c37.6 0 68.2 30.6 68.2 68.2v36.1H40.9v-36.1c0-37.6 30.6-68.2 68.3-68.2zm551.4 528.2H109.2c-37.6 0-68.2-30.6-68.2-68.2V186.2h687.8v314.7c0 37.6-30.6 68.2-68.2 68.2z"/></svg>
