<svg xmlns="http://www.w3.org/2000/svg" viewBox="0 0 804.1 804.6"><style>.st0{fill-rule:evenodd;clip-rule:evenodd}</style><path class="st0" d="M804.1 370L402 0 0 370h128.9v-32H83.5L402 48.3 720.6 338h-45.4v32h128.9z"/><path class="st0" d="M400.5 577.6c-69 0-125.1-56.1-125.1-125.1s56.1-125.1 125.1-125.1 125.1 56.1 125.1 125.1-56.2 125.1-125.1 125.1zm0-217.8c-51.1 0-92.8 41.6-92.8 92.7s41.6 92.7 92.8 92.7c51.1 0 92.7-41.6 92.7-92.7s-41.6-92.7-92.7-92.7z"/><path class="st0" d="M617.2 773.6h-32.3c0-49.8-15.6-96.6-43.8-131.8-27.4-34.2-63.4-53-101.3-53h-75.4c-37.9 0-73.9 18.8-101.3 53-28.3 35.2-43.8 82-43.8 131.8H187c0-119.7 79.6-217.1 177.5-217.1h75.4c97.7 0 177.3 97.4 177.3 217.1zM675.2 370h32.6v434.6h-32.6V370zM96.3 370h32.6v434.6H96.3V370z"/><path class="st0" d="M584.9 772.6h122.3v32H584.9v-32zM96.6 772.6H219v32H96.6v-32z"/></svg>
