<svg xmlns="http://www.w3.org/2000/svg" viewBox="0 0 775.9 679.8"><style>.st0{fill-rule:evenodd;clip-rule:evenodd}</style><path class="st0" d="M197.4 679.8h397.8l56.6-118.4H135.6l61.8 118.4m375.2-35.9H219.1l-24.3-46.6h400.1l-22.3 46.6m0 0zM591.2 164.1L485.9 351.4l-104-266.2L281 349.8l-97.6-185.5-23.5 225.1-135.7-92.2 101.9 235.1h534.7l93-241L621 392.2l-29.8-228.1m45 332.4H149.6l-43.4-100.1 83.1 56.5 17.4-167 79.4 150.9 96.1-252L480 435l89.6-159.3 23.9 182.5 81.3-61.8-38.6 100.1m0 0zM0 241.3c0 8.8 3.6 17.5 9.8 23.7 6.2 6.2 14.9 9.8 23.7 9.8 8.8 0 17.5-3.6 23.7-9.8 6.2-6.2 9.8-14.9 9.8-23.7 0-8.8-3.6-17.5-9.8-23.7-6.2-6.2-14.9-9.8-23.7-9.8-8.8 0-17.5 3.6-23.7 9.8-6.2 6.2-9.8 14.9-9.8 23.7m0 0zM349.4 33.5c0 8.8 3.6 17.5 9.8 23.7 6.2 6.2 14.9 9.8 23.7 9.8 8.8 0 17.5-3.6 23.7-9.8 6.2-6.2 9.8-14.9 9.8-23.7s-3.6-17.5-9.8-23.7c-6.3-6.2-15-9.8-23.8-9.8s-17.5 3.6-23.7 9.8c-6.1 6.2-9.7 14.9-9.7 23.7m0 0z"/><path class="st0" d="M709 241.3c0 8.8 3.6 17.5 9.8 23.7 6.2 6.2 14.9 9.8 23.7 9.8 8.8 0 17.5-3.6 23.7-9.8 6.2-6.2 9.8-14.9 9.8-23.7 0-8.8-3.6-17.5-9.8-23.7-6.2-6.2-14.9-9.8-23.7-9.8-8.8 0-17.5 3.6-23.7 9.8-6.2 6.2-9.8 14.9-9.8 23.7m0 0z"/></svg>
