<svg xmlns="http://www.w3.org/2000/svg" viewBox="0 0 657.8 695"><style>.st0{fill-rule:evenodd;clip-rule:evenodd}</style><path class="st0" d="M173.6 322.5l24.2-24.2c9.9 7.2 20.5 13.3 31.9 18.1 20.3 8.6 41.9 12.9 64.1 12.9 22.2 0 43.8-4.4 64.1-12.9 19.6-8.3 37.2-20.2 52.3-35.3 15.1-15.1 27-32.7 35.3-52.3 8.6-20.3 13-41.9 13-64.1 0-22.2-4.4-43.8-13-64.1-8.3-19.6-20.2-37.2-35.3-52.3-15.1-15.1-32.7-27-52.3-35.3C337.5 4.4 316 0 293.8 0c-22.2 0-43.8 4.4-64.1 12.9-19.6 8.3-37.2 20.2-52.3 35.3-15.1 15.1-27 32.7-35.3 52.3-8.6 20.3-12.9 41.9-12.9 64.1 0 22.2 4.4 43.8 12.9 64.1 3 7 6.6 13.7 10.4 20.2l-25.4 25.4c-1.2-.1-2.4-.1-3.6-.1-13.4 0-26 5.2-35.4 14.7l-73.4 73.4C5.2 371.7 0 384.3 0 397.7c0 13.4 5.2 26 14.7 35.4 9.5 9.5 22 14.7 35.4 14.7 13.4 0 26-5.2 35.4-14.7l73.4-73.4c10-10 15.2-23.5 14.7-37.2zM293.8 39c69.3 0 125.7 56.4 125.7 125.7 0 69.3-56.4 125.7-125.7 125.7-69.4 0-125.8-56.4-125.8-125.7C168 95.3 224.4 39 293.8 39zM131.4 332.1L58 405.6c-2.1 2.1-4.9 3.3-7.9 3.3s-5.8-1.2-7.9-3.3c-2.1-2.1-3.3-4.9-3.3-7.9s1.2-5.8 3.3-7.9l73.4-73.4c2.1-2.1 4.9-3.3 7.9-3.3 1.3 0 2.5.2 3.7.6 2 .7 4.1 1.1 6.2 1.1-.1 2.1.2 4.2.8 6.3 1.1 3.9.1 8.2-2.8 11zM553.6 422.2c0-10.8-8.7-19.5-19.5-19.5H221.8c-10.8 0-19.5 8.7-19.5 19.5s8.7 19.5 19.5 19.5h312.3c10.8 0 19.5-8.8 19.5-19.5zM221.8 494.9c-10.8 0-19.5 8.7-19.5 19.5s8.7 19.5 19.5 19.5h217.1c10.8 0 19.5-8.7 19.5-19.5s-8.7-19.5-19.5-19.5H221.8z"/><path class="st0" d="M612.2 76.7H497.9c-10.8 0-19.5 8.7-19.5 19.5s8.7 19.5 19.5 19.5h114.3c3.7 0 6.6 3 6.6 6.6v405.4H516c-10.8 0-19.5 8.7-19.5 19.5v108.9H143.7c-3.7 0-6.6-3-6.6-6.6V447.2c0-10.8-8.7-19.5-19.5-19.5s-19.5 8.7-19.5 19.5v202.3c0 25.1 20.4 45.6 45.6 45.6h381.8c5.3 0 10.3-2.1 14-5.9l112.8-116.7c3.5-3.6 5.5-8.5 5.5-13.5V122.3c0-25.1-20.5-45.6-45.6-45.6zm-76.8 560.6v-70.6h68.3l-68.3 70.6z"/></svg>
