<svg xmlns="http://www.w3.org/2000/svg" viewBox="0 0 685 695.9"><style>.st0{fill-rule:evenodd;clip-rule:evenodd}</style><path class="st0" d="M94.5 662C61.2 662 34 633.9 34 599.1V33.9h484c33.3 0 60.5 28.2 60.5 63.1v216h34V97c0-53.4-42.2-97-94.6-97H0v599.1C0 652.5 42.2 696 94.5 696h273v-34h-273zm414.4-390.4c9.4 0 17-7.6 17-17s-7.6-17-17-17H119.8c-9.4 0-17 7.6-17 17s7.6 17 17 17h389.1zm-122 100.1c9.4 0 17-7.6 17-17s-7.6-17-17-17H121.4c-9.4 0-17 7.6-17 17s7.6 17 17 17h265.5zm-35.2 99.5c9.4 0 17-7.6 17-17s-7.6-17-17-17H121.4c-9.4 0-17 7.6-17 17s7.6 17 17 17h230.3zm-27.8 108c9.4 0 17-7.6 17-17s-7.6-17-17-17H121.4c-9.4 0-17 7.6-17 17s7.6 17 17 17h202.5zm186.9-409.5c9.4 0 17-7.6 17-17s-7.6-17-17-17H121.7c-9.4 0-17 7.6-17 17s7.6 17 17 17h389.1zm-81.9 380.9c-7.9 0-14.3 5.4-14.3 11.9v110.9c0 6.6 6.4 11.9 14.3 11.9s14.3-5.4 14.3-11.9V562.5c0-6.6-6.4-11.9-14.3-11.9zm74.2-67.5c-9.1 0-16.5 6.2-16.5 13.7v174.8c0 7.6 7.4 13.7 16.5 13.7s16.5-6.2 16.5-13.7V496.8c-.1-7.6-7.5-13.7-16.5-13.7zm84.4 51.3c-9.1 0-16.5 6.2-16.5 13.7v123.5c0 7.6 7.4 13.7 16.5 13.7s16.5-6.2 16.5-13.7V548.1c0-7.6-7.4-13.7-16.5-13.7zm71.3-51.3c-9.1 0-16.5 6.2-16.5 13.7v174.8c0 7.6 7.4 13.7 16.5 13.7s16.5-6.2 16.5-13.7V496.9c0-3.2-1.3-6.3-3.7-8.8-3.2-3.2-7.8-5-12.8-5zM677 368.8l-47.3-10.4h-.2c-.4 0-8.6.3-10.1 7.8-.6 3.1-.1 6.3 1.4 9 1.5 2.6 3.7 4.3 6.3 5l20.1 5.1-64.2 60.3-56.4-56.3c-2.2-2.6-5.2-4.1-8.4-4.1-2.6 0-5.2 1.1-7.3 3L423 470.7c-5 4.7-5.8 13.3-1.9 19.2 2.2 3.4 5.6 5.3 9.2 5.3 2.6 0 5.2-1.1 7.3-3l80.3-75.4 55.8 55.7c2.2 2.1 4.9 3.3 7.8 3.2 3.4.9 7.1-.1 9.7-2.7l68.5-64.3-4.2 23.8c-1.1 6.3 2.3 12.6 7.7 13.9.7.2 1.4.3 2.1.3 4.7 0 8.8-3.9 9.8-9.4l9.7-54.6c1.1-6.3-2.3-12.5-7.8-13.9z"/></svg>
