<svg xmlns="http://www.w3.org/2000/svg" viewBox="0 0 818 818"><style>.st0{fill-rule:evenodd;clip-rule:evenodd;fill:#333}</style><path class="st0" d="M803.4 818H14.6C6.5 818 0 811.5 0 803.4V14.6C0 6.5 6.5 0 14.6 0h29.2c8.1 0 14.6 6.5 14.6 14.6v745H146V525.8c0-16.1 13.1-29.2 29.2-29.2h29.2c16.1 0 29.2 13.1 29.2 29.2v233.7h87.6V438.2c0-16.1 13.1-29.2 29.2-29.2h29.2c16.1 0 29.2 13.1 29.2 29.2v321.4h87.6V292.1c0-16.1 13.1-29.2 29.2-29.2h29.2c16.1 0 29.2 13.1 29.2 29.2v467.4h87.6V175.3c0-16.1 13.1-29.2 29.2-29.2H730c16.1 0 29.2 13.1 29.2 29.2v584.3H803c8.1 0 14.6 6.5 14.6 14.6v29.2c.4 8.1-6.1 14.6-14.2 14.6zM132.6 396.3L118 371.1c-4-7-1.6-15.9 5.4-20l365.3-210.9-50.5-81.7h292.1L152.6 401.7c-7 4-15.9 1.6-20-5.4z"/></svg>
