<svg xmlns="http://www.w3.org/2000/svg" viewBox="0 0 614.3 677.1"><style>.st0{fill-rule:evenodd;clip-rule:evenodd}</style><path class="st0" d="M315.6 305.1zM307.1 646.5c141.6-1.5 213-24.4 247.2-59 32.3-32.7 31.2-79.1 26.6-127.9-3.7-39.1-24.8-81.6-57.9-119.5-31.1-35.6-72.6-66.9-120.1-87.6-12.4 7.1-26.2 12.9-41 17h-.1c-17.1 4.8-35.6 7.4-54.7 7.4-19.2 0-37.6-2.6-54.7-7.4h-.1c-14.8-4.1-28.6-9.9-41-17-47.6 20.7-89.1 52-120.1 87.6-33.1 38-54.2 80.4-57.9 119.6-4.6 48.8-5.7 95.1 26.6 127.9 34.2 34.5 105.6 57.4 247.2 58.9zM576.4 609c-39.6 40.1-117.8 66.5-269.1 68.1h-.3c-151.3-1.6-229.5-28-269.1-68.1-41.5-42-40.6-95.9-35.3-152.1 4.3-45.6 28.1-94.1 65.3-136.7 35.6-40.8 83.8-76.4 138.9-98.9l7.5-3.1 6.8 4.5c11.3 7.4 24.8 13.4 39.6 17.5 14.3 3.9 29.9 6.1 46.4 6.1s32.1-2.2 46.4-6.1c14.8-4.1 28.2-10.1 39.6-17.5l6.8-4.5 7.5 3.1c55.2 22.5 103.3 58.1 138.9 98.9 37.2 42.6 61 91.1 65.3 136.7 5.4 56.2 6.3 110.1-35.2 152.1z"/><path class="st0" d="M228.1 234.6c.5 8.4-6.1 15.7-14.6 16.1-8.5.5-15.8-6-16.3-14.5 0-.1-1.8-30.5-11-64.2-4.9-18-22.6-35.1-36.8-48.9-10.3-9.9-19.1-18.4-23.3-27.1l-.4-1c-3.4-7.4-3.8-14.9-2-21.9 1.4-5.3 4.1-10.1 7.7-14.2 3.3-3.7 7.6-6.9 12.6-9.3 9.1-4.3 20.4-5.8 32-2.8 9.5 2.4 22.7 5.3 35.2 4.5 10.4-.7 20.5-4.1 27-13.5 11.6-16.7 24.4-26.1 36.6-31.4C287.2 1 298-.8 307.3 0c16.6 1.4 22.9 6.5 34 17.9 3.4 3.5 7.5 7.7 12.5 12.1 5.7 5 16.5 6 28.1 5.3 13.8-.8 28.3-4.2 38.2-6.8 11.6-3 22.9-1.5 32 2.8.3.2.7.4 1 .5 4.5 2.3 8.5 5.3 11.6 8.8 3.6 4 6.3 8.8 7.7 14.2 1.9 7.2 1.3 15.1-2.4 22.9-3 6.2-8.3 14.3-14.5 24-12.6 19.5-29.7 45.9-35.6 67.7-8.6 31.8-2.8 63.6-2.8 63.7 1.2 8.4-4.6 16.1-13.1 17.4-8.4 1.2-16.3-4.6-17.5-12.9 0-.1-6.9-37.6 3.5-76 7.1-26.4 25.7-55.1 39.5-76.4 5.7-8.9 10.6-16.4 12.7-20.8.4-.8.5-1.4.4-1.9-.1-.4-.4-.9-.9-1.4-.6-.7-1.5-1.4-2.4-1.9l-.5-.2c-2.9-1.4-6.7-1.8-10.8-.8-11.3 2.9-27.7 6.8-44.2 7.8-18.7 1.1-37.4-1.5-50.3-12.9-6.3-5.5-11-9.7-14.3-13.8-4-4.9-7.2-7.6-11.8-8.4-6.3-1.2-12.9.6-20.1 3.7-7.5 3.3-15.6 9.4-23.5 20.7-13 18.6-31.6 25.4-50.4 26.7-16.7 1.1-33.2-2.5-44.9-5.5-4.1-1.1-7.9-.6-10.8.8h-.1c-1.1.5-2.1 1.2-2.8 2.1-.5.5-.8 1-.9 1.4-.1.4-.1.9.2 1.6l.2.4c1.9 3.9 8.9 10.6 17 18.5 17 16.4 38.2 36.9 45.2 62.9 9.6 36.4 11.6 70.3 11.6 70.4z"/><path class="st0" d="M183.7 158.1c-7.9-3-11.9-11.8-8.9-19.7 3-7.9 12-11.8 19.9-8.8 24.9 9.5 35.4-1.6 45.5-12.3l.8-.8C251.9 105 262.7 94 282.8 93c24.8-1.3 34.9 9.3 45.3 20.4 5.8 6.2 12 12.7 25.4 12.6 12.2 0 26.8-9.4 40.5-21.9 20.8-18.9 38.1-44.1 43.7-58.2 3.1-7.9 12.1-11.8 20-8.7 7.9 3.1 11.9 12 8.7 19.8-6.9 17.4-27.4 47.6-51.5 69.7-18.7 17.1-40.4 29.8-61.5 29.9-26.8.1-37.6-11.3-47.9-22.3-5.4-5.7-10.6-11.2-21.2-10.6h-.1c-7.8.4-14.2 6.9-20.8 13.8-.2.3-.5.6-.8.9-16.9 17.9-34.5 36.7-78.9 19.7zM579.1 191c6.7 5.2 7.9 14.9 2.6 21.5-5.3 6.7-15 7.8-21.7 2.6-.1 0-20.6-15.5-60.3-13.3-8.4.4-17.3 2.4-26.1 5.3 9.4.6 18.9 2 27.8 4.5 48.9 13.5 70 50.3 70 50.4 4.1 7.4 1.5 16.7-6 20.8-7.5 4.1-16.9 1.4-21-6 0-.1-14.7-25.6-51.3-35.7-38.6-10.6-92.2 3.5-92.4 3.5-5.9 1.5-6.5-2.6-10.3-7.8-5-6.8-5.5-16.6 1.4-21.6.2-.1 56.1-41.3 106.2-44 51.2-2.8 81 19.7 81.1 19.8zM297.2 530.4h-53.5v-31.9h53.5v-21h-53.5V450.8h36.9l-47.8-84.9-1.6-2.9H266.1l.5 1 43.9 79.5 39.9-79.4.6-1.1h36.3l-1.6 2.9-45.5 84.9h36.6V477.5h-53.6v21h53.6v31.9h-53.6v35.2h-26v-35.2z"/></svg>
