<svg xmlns="http://www.w3.org/2000/svg" viewBox="0 0 767.2 851.8"><style>.st0{fill-rule:evenodd;clip-rule:evenodd}</style><path class="st0" d="M346.8 414.8c-114.4 0-207.4-93.1-207.4-207.4S232.5 0 346.8 0c114.4 0 207.4 93 207.4 207.4s-93 207.4-207.4 207.4zm0-377.2c-93.6 0-169.8 76.2-169.8 169.8s76.2 169.8 169.8 169.8S516.7 301 516.7 207.4 440.5 37.6 346.8 37.6zM767.2 851.8zM355.7 775L164.3 476.9l23.7-15.2 166.6 259.5 155.9-264.9 24.3 14.3L355.7 775z"/><path class="st0" d="M704.6 765.5H667c0-132.7-83.9-251.8-208.8-296.5l12.6-35.4C610.7 483.7 704.6 617 704.6 765.5zM37.6 765.5H0c0-147.3 92.9-280.3 231.1-330.9l12.9 35.3C120.6 515.2 37.6 634 37.6 765.5zM370.6 477.3h-33.4l-15.3-41.5h64.2l-15.5 41.5zM356.3 675.1L319 629.6l13.2-131.4h44.9l11.7 131-32.5 45.9zm-17.8-51.3l16.7 20.4 14.3-20.1-9.5-107h-10.7l-10.8 106.7z"/></svg>
