<svg xmlns="http://www.w3.org/2000/svg" viewBox="0 0 660.2 660.2"><style>.st0{fill-rule:evenodd;clip-rule:evenodd}</style><path class="st0" d="M660.2 246.1v414.1H0V252.1c14.6-12.2 29.1-24.4 48.9-41 6.9-35.8-21.3-98.6 56.8-106.3C113.6 68.1 91.5 23.3 138 0h378.1c40 26 26.7 68.5 30.5 104.9 75.9 10.5 50.2 71.4 57.1 108.3 22 12.8 39.2 22.8 56.5 32.9zm-330.3 10.6c-82 0-163.9-.2-245.9.1-38.2.1-50 11.9-50.1 50.4-.4 89-.3 177.9 0 266.9.1 40.4 11.6 52.7 51.4 52.8 163.9.4 327.9.4 491.8 0 37.9-.1 50.5-13.1 50.7-51 .5-89 .4-177.9 0-266.9-.2-40.2-12.1-52.1-51.9-52.2-82.1-.3-164.1-.1-246-.1zM85.4 220.2h483c5.1-70.6-3.3-79.9-70.5-79.9H156.1c-66 .1-77.3 12.6-70.7 79.9zm423.8-113.7c6.5-61.7-3.2-72.7-61.5-72.8-83-.1-165.9-.2-248.9 0-51.6.1-67.2 21.2-53.5 72.7 120.4.1 241.1.1 363.9.1z"/><path class="st0" d="M321.4 584.5c0-8-.3-15.5.1-23 .3-5.6-1.3-7.8-7.3-8.5-33.5-4.2-58-20.7-70.5-53.1-.4-1-.8-2-1-3-.2-.7-.1-1.5-.2-3.1 11.3-2.7 22.7-5.4 34.6-8.2 6.8 21.5 19.5 35.7 43.7 37.7v-66c-2-.7-4.5-1.5-6.9-2.3-8.9-2.9-18-5.4-26.7-8.7-23.7-9.2-36.6-26.2-36.9-52-.3-27.4 11.6-46.5 36.6-56.7 9.1-3.7 18.9-5.7 28.5-7.9 4.3-1 6.6-2.4 6.2-7.3-.4-5.8-.1-11.6-.1-17.9h22.2v23.7c20.2 3.5 38.9 9.3 51.8 25.5 5.8 7.3 9.9 16.1 15.7 25.6-12.2 2.5-22 4.9-32 6.4-1.6.2-4.5-2.9-5.6-5.1-6-12.1-14.7-20.1-29.3-21.3v58.4c10.4 3.3 20.7 7.1 31.3 9.9 24.7 6.8 37.6 23.8 41.3 48 3.8 24.6-3.7 45.6-23.6 61.3-12.6 9.9-27.5 14.3-43.1 16-4.7.5-6.5 2-6.3 6.9.3 8 .1 16 .1 24.5-7.6.2-14.5.2-22.6.2zm22.8-61.9c19.8 1.6 36.4-12.3 36.9-30.8.5-17.5-16.8-32.4-36.9-31.5v62.3zm-23.3-163.4c-12.1.5-22.9 3-29.7 13.3-5.9 8.9-6.4 18.9-.7 28.1 6.8 10.9 18.1 13.6 30.4 14.8v-56.2z"/></svg>
