<svg xmlns="http://www.w3.org/2000/svg" viewBox="0 0 712.2 715.1"><style>.st0{fill-rule:evenodd;clip-rule:evenodd}</style><path class="st0" d="M645.5 0H66.8C30 0 0 30 0 66.8v133.5c0 36.8 30 66.8 66.8 66.8h18.8v381.2c0 36.8 30 66.8 66.8 66.8H560c36.8 0 66.8-30 66.8-66.8V267.1h18.8c36.8 0 66.8-30 66.8-66.8V66.8C712.2 30 682.3 0 645.5 0zm-85.6 670.6H152.3c-12.3 0-22.3-10-22.3-22.3V155.8h452.1v492.5c.1 12.3-9.9 22.3-22.2 22.3zm107.8-470.3c0 12.3-10 22.3-22.3 22.3h-18.8v-67.5c10.6-1.7 18.8-10.5 18.8-21.6 0-12.3-10-22.3-22.3-22.3H89c-12.3 0-22.3 10-22.3 22.3 0 11.1 8.2 19.8 18.8 21.6v67.5H66.8c-12.3 0-22.3-10-22.3-22.3V66.8c0-12.3 10-22.3 22.3-22.3h578.7c12.3 0 22.3 10 22.3 22.3l-.1 133.5z"/><path class="st0" d="M434.7 272.4L356.1 351l-78.6-78.6c-8.7-8.7-22.8-8.7-31.5 0s-8.7 22.8 0 31.5l70.9 70.9h-37.8c-12.3 0-22.3 10-22.3 22.3s10 22.3 22.3 22.3h55.5v35.4h-55.9c-13.3 0-24 10.8-24 24 0 13.3 10.8 24 24 24h55.9v48.3c0 12.3 10 22.3 22.3 22.3s22.3-10 22.3-22.3v-48.3h55.4c13.3 0 24-10.8 24-24 0-13.3-10.8-24-24-24h-55.4v-35.4H435c12.3 0 22.3-10 22.3-22.3s-10-22.3-22.3-22.3h-39.6l70.9-70.9c8.7-8.7 8.7-22.8 0-31.5-8.8-8.7-22.9-8.7-31.6 0z"/></svg>
