<svg xmlns="http://www.w3.org/2000/svg" viewBox="0 0 717.1 818.6"><style>.st0{fill-rule:evenodd;clip-rule:evenodd}</style><path class="st0" d="M692.2 145H557.5V85.4C557.5 40 518.4 0 473.7 0h-230c-44.9 0-84.2 39.9-84.2 85.4V145H24.9C11.1 145 0 156.1 0 169.9v524.9c0 68.3 52.7 123.8 117.7 123.8H600c64.6 0 117.2-55.6 117.2-123.8V169.9c-.1-13.8-11.2-24.9-25-24.9M209.4 85.2c0-17.6 17.4-35.6 34.4-35.6h230c17.2 0 34 17.6 34 35.6V145H209.4V85.2m-49.8 109.6v80.4c-7.3 7-11.8 16.8-11.8 27.7 0 21.3 17.4 38.7 38.7 38.7 21.3 0 38.7-17.4 38.7-38.7 0-12.8-6.3-24-15.8-31.1v-77.1h298.3v77.1c-9.5 7.1-15.8 18.3-15.8 31.1 0 21.3 17.3 38.7 38.7 38.7 21.3 0 38.7-17.4 38.7-38.7 0-10.9-4.5-20.6-11.8-27.7v-80.4h109.8v446.6H49.8V194.8h109.8m440.3 574H117.7c-37.3 0-67.9-33.2-67.9-74v-9.9h617.7v9.9c-.2 40.8-30.4 74-67.6 74m0 0z"/></svg>
