<svg xmlns="http://www.w3.org/2000/svg" viewBox="0 0 819.2 819.2"><style>.st0{fill-rule:evenodd;clip-rule:evenodd}</style><path class="st0" d="M409.6 0C184.3 0 0 184.3 0 409.6s184.3 409.6 409.6 409.6 409.6-184.3 409.6-409.6S634.9 0 409.6 0zm0 778.2c-202.2 0-366.1-166.4-366.1-368.6S207.4 41 409.6 41s368.6 166.4 368.6 368.6-163.8 368.6-368.6 368.6z"/><path class="st0" d="M409.6 94.7c-171.5 0-312.3 140.8-312.3 314.9s140.8 314.9 312.3 314.9 314.9-143.4 314.9-314.9S583.7 94.7 409.6 94.7zm0 588.8c-151 0-273.9-122.9-273.9-273.9s122.9-273.9 273.9-273.9 273.9 122.9 273.9 273.9-122.9 273.9-273.9 273.9z"/><path class="st0" d="M425 391.7c-51.2-7.7-76.8-25.6-76.8-48.6 2.6-25.6 23-41 61.4-41 33.3 0 56.3 15.4 64 48.6l41-10.2c-10.2-41-38.4-64-87-71.7v-51.2h-41v46.1c-48.6 7.7-76.8 33.3-79.4 76.8-2.6 46.1 33.3 74.2 107.5 84.5 48.6 7.7 71.7 25.6 69.1 51.2 0 30.7-25.6 46.1-69.1 48.6-41 0-66.6-20.5-76.8-64L297 471c12.8 48.6 43.5 74.2 92.2 79.4v46.1h41v-46.1c64-5.1 97.3-30.7 97.3-79.4-.1-40.9-33.4-69.1-102.5-79.3z"/></svg>
