<svg xmlns="http://www.w3.org/2000/svg" viewBox="0 0 768 819.2"><style>.st0{fill-rule:evenodd;clip-rule:evenodd}</style><path class="st0" d="M522.1 768H71.5c-11 0-20.3-12.5-20.3-27.3V78.6c0-14.8 9.3-27.4 20.3-27.4h573.8c11 0 20.3 12.5 20.3 27.4V361c0 14.1 11.5 25.6 25.6 25.6 14.1 0 25.6-11.5 25.6-25.6V78.6c0-43.3-32.1-78.6-71.5-78.6H71.5C32.1 0 0 35.2 0 78.6v662.1c0 43.3 32.1 78.5 71.5 78.5h450.6c14.1 0 25.6-11.5 25.6-25.6 0-14.1-11.6-25.6-25.6-25.6zm66.7-563.2c0-14.1-11.5-25.6-25.6-25.6H153.6c-14.1 0-25.6 11.5-25.6 25.6 0 14.1 11.5 25.6 25.6 25.6h409.6c14.1 0 25.6-11.5 25.6-25.6zM482.1 409.6c0-14.1-11.5-25.6-25.6-25.6H153.6c-14.1 0-25.6 11.5-25.6 25.6 0 14.1 11.5 25.6 25.6 25.6h302.9c14.2 0 25.6-11.5 25.6-25.6zM153.6 588.8c-14.1 0-25.6 11.5-25.6 25.6s11.5 25.6 25.6 25.6h76.8c14.1 0 25.6-11.5 25.6-25.6s-11.5-25.6-25.6-25.6h-76.8zm217.6-13.4c0 17 11.3 28.3 28.3 28.3h272.1l-93.5 93.5c-5.7 5.7-8.5 14.2-8.5 19.9 0 5.7 2.8 14.2 8.5 19.8 11.3 11.3 28.3 11.3 39.7 0l141.7-141.7c11.3-11.3 11.3-28.3 0-39.7L617.8 413.8c-11.3-11.3-28.3-11.3-39.7 0-11.3 11.3-11.3 28.3 0 39.7l93.5 93.5H399.5c-17 0-28.3 11.4-28.3 28.4z"/></svg>
