<svg xmlns="http://www.w3.org/2000/svg" viewBox="0 0 819.2 819.2"><style>.st0{fill-rule:evenodd;clip-rule:evenodd}</style><path class="st0" d="M493.9 60.8c24.2 4.2 47.8 11.1 70.6 20.8 38.7 16.4 73.5 39.8 103.4 69.7 29.9 29.9 53.4 64.7 69.7 103.4 9.6 22.8 16.6 46.4 20.8 70.6H493.9V60.8zM437.9 0v381.3h381.3C819.2 170.7 648.5 0 437.9 0m-28.3 409.6V56.5L353.1 58C155.7 72.4 0 236.8 0 437.9c0 210.6 170.7 381.3 381.3 381.3 201.1 0 365.4-155.7 380-353.1l1.4-56.5H409.6m-28.3 353.1c-179.4 0-324.9-145.5-324.9-324.9C56.5 268 187 128.7 353.1 114.4v351.7h351.6c-14.3 166.2-153.5 296.6-323.4 296.6"/></svg>
