<svg xmlns="http://www.w3.org/2000/svg" viewBox="0 0 687.7 593.3"><style>.st0{fill-rule:evenodd;clip-rule:evenodd}</style><path class="st0" d="M646.9 138.1H457.8c5.4-4 10.3-8.3 14.7-13 16.6-17.8 25-39.9 25-65.7 0-36.1-26.2-59.4-66.7-59.4-22.9 0-48 7.7-67.3 20.6-7.8 5.2-14.3 11-19.7 17.4-5.3-6.3-11.9-12.2-19.7-17.4C304.8 7.7 279.7 0 256.8 0c-40.5 0-66.7 23.3-66.7 59.4 0 25.8 8.4 47.9 25 65.7 4.3 4.7 9.3 9 14.7 13h-189C18.3 138.1 0 156.3 0 178.8v46.3c0 22.5 18.3 40.8 40.8 40.8h12.9c-.5 2.6-.8 5.3-.8 8v278.7c0 22.5 18.3 40.8 40.8 40.8h500.5c22.5 0 40.8-18.3 40.8-40.8V273.9c0-2.7-.3-5.4-.8-8H647c22.5 0 40.8-18.3 40.8-40.8v-46.3c-.1-22.5-18.4-40.7-40.9-40.7zM430.8 32.7c22.5 0 33.9 9 33.9 26.6 0 32-18.2 54-55.6 67.4-18 6.4-36.3 9.2-49 10.4V80.5c.1-26.5 38.7-47.8 70.7-47.8zm-174 0c32 0 70.7 21.3 70.7 47.7v56.7c-12.7-1.2-31-4-49-10.4-37.4-13.4-55.6-35.4-55.6-67.4 0-17.6 11.4-26.6 33.9-26.6zM32.7 225.1v-46.3c0-4.4 3.6-8 8-8h286.7v62.3H40.8c-4.5 0-8.1-3.6-8.1-8zm52.9 327.5V273.9c0-4.4 3.6-8 8-8h233.9v294.7H93.6c-4.4 0-8-3.6-8-8zm516.5-278.7v278.7c0 4.4-3.6 8-8 8H360.2V265.9h233.9c4.4 0 8 3.6 8 8zm52.8-48.8c0 4.4-3.6 8-8 8H360.2v-62.3h286.7c4.4 0 8 3.6 8 8v46.3z"/></svg>
