<svg xmlns="http://www.w3.org/2000/svg" viewBox="0 0 821.8 821.8"><style>.st0{fill-rule:evenodd;clip-rule:evenodd}</style><path class="st0" d="M243.1 364.4c5.1 9 11.9 17.1 20.5 24.5 8.6 7.3 18.1 12.7 28.5 16 10.4 3.4 20.4 5.1 29.7 4.9 12.2 0 24.1-2.4 35.9-7.5 11.7-5.1 21-11.1 28-18.1 7-7 12.7-14.3 17.1-22 4.4-7.7 7.7-15.3 9.8-23.2 4.1-15.8 4.6-29.8 1.5-42.1-3.1-12.2-6.8-22-11.4-29.4-4.4-7.2-10.3-14.3-17.6-21.5-7.3-7-16-12.7-25.9-17-10.1-4.2-22.2-6.4-36.4-6.4-6 .2-12.6.8-19.6 1.8-7 1.1-14.7 3.7-23 7.8s-16.5 10.1-24.3 18.1c-8 7.8-14 16.5-18.4 25.9-4.2 9.3-6.8 19.4-7.8 30.3-1 10.8.2 22 3.3 33.4 1.8 7.6 5.1 15.6 10.1 24.5zm10.5-62.9c1.6-9.6 5.9-18.9 12.4-27.6 6.7-8.6 15-15.5 25.1-20.5 10.1-4.9 20.9-7.5 32.5-7.5 10.1.2 19.4 2.1 27.7 5.9 8.3 3.7 17.1 10.3 26.3 19.7 9.3 9.5 14 23.6 14.5 42.6.2 8.8-1.5 17.9-4.9 27.1-3.4 9.3-10.3 18.8-20.5 28.7-10.3 9.9-24.9 15.3-44.2 16.3-7.7.3-15.8-1.3-24.6-5.1-8.8-3.7-15.8-8.3-21.4-13.5-5.5-5.2-10.3-10.9-14.2-17.1-3.9-6.2-6.8-13.5-8.5-22-1.9-8.2-1.9-17.4-.2-27zm331.1 156.1c-4.4-7.3-10.3-14.3-17.3-21.2-7.2-6.8-16-12.6-26.7-17.1-10.6-4.6-22.5-6.7-35.9-6.7-5.4.2-11.9.8-19.7 2.3-7.8 1.5-15.5 3.9-23.2 7.7-7.7 3.7-15.5 9.8-23.8 17.9-8.2 8.2-14.5 16.8-18.6 25.9-4.2 9.1-6.8 19.1-7.7 29.8-1 10.8.2 22.2 3.3 33.9 1.8 7.3 5.2 15.3 10.1 24.1 4.9 8.6 11.6 16.8 20.5 24.1 8.8 7.5 18.4 12.9 28.5 16.1 10.3 3.3 20.2 4.9 29.8 4.9 12.2 0 24.3-2.4 35.9-7.5 11.6-4.9 20.9-10.9 28-18.1 7.2-7.2 12.9-14.5 17.1-22 4.2-7.5 7.5-15.2 9.6-22.8 4.1-15.7 4.6-29.7 1.5-42.1-3.2-12.1-6.9-21.9-11.4-29.2zm-15.8 73.5c-3.4 9.1-10.3 18.8-20.5 28.9-10.3 10.1-25.1 15.3-44.4 16-7.3.3-15.5-1.3-24.5-5.2-9-3.9-16-8.3-21.4-13.4-5.4-5.1-10.1-10.8-14.2-17-4.1-6.2-7-13.5-8.6-22-1.8-8-1.8-17 0-26.9 1.8-9.9 5.9-19.2 12.6-27.7 6.7-8.5 15-15.5 25.1-20.4 10.1-4.9 20.9-7.5 32.4-7.5 10.3.2 19.6 2.1 27.9 5.9 8.3 3.7 17 10.4 26.3 19.9 9.1 9.6 14 23.8 14.3 42.6.1 8.7-1.5 17.5-5 26.8zm-344.4 48.4l14.8 19.2 362.5-356-16-19.1-361.3 355.9zM410.9 0C184.3 0 0 184.3 0 410.9c0 226.5 184.3 410.9 410.9 410.9 226.5 0 410.9-184.4 410.9-410.9C821.8 184.3 637.6 0 410.9 0zm0 791.2c-209.7 0-380.3-170.6-380.3-380.3 0-209.7 170.6-380.3 380.3-380.3 209.7 0 380.3 170.6 380.3 380.3.2 209.7-170.6 380.3-380.3 380.3z"/></svg>
