<svg xmlns="http://www.w3.org/2000/svg" viewBox="0 0 682.5 682.4"><style>.st0{fill-rule:evenodd;clip-rule:evenodd}</style><path class="st0" d="M648.5 267.6l-47-4.9c-5.2-17.2-12.1-33.9-20.7-49.8l29.8-36.8c12-14.9 9.9-38.1-4.9-52.9l-46.3-46.3c-8.1-8.1-19.1-12.7-30.2-12.7-8.6 0-16.4 2.7-22.8 7.8l-36.8 29.8C453.7 93.1 437 86.2 419.8 81l-5-47c-2-19-20-34-40.9-34h-65.5c-20.9 0-38.9 14.9-40.9 34l-5 47c-17.2 5.2-33.9 12.1-49.8 20.7L176 71.9c-6.3-5.1-14.2-7.8-22.8-7.8-11.1 0-22.1 4.6-30.2 12.7l-46.3 46.3c-14.8 14.8-16.9 38-4.9 52.9l29.8 36.8c-8.6 15.9-15.5 32.6-20.7 49.8l-47 5c-19 2-34 20-34 40.9V374c0 20.9 14.9 38.9 34 40.9l47 4.9c5.2 17.2 12.1 33.9 20.7 49.8l-29.8 36.8c-12 14.9-9.9 38.1 4.9 52.9l46.3 46.3c8.1 8.1 19.1 12.7 30.2 12.7 8.6 0 16.4-2.7 22.8-7.8l36.8-29.8c15.9 8.6 32.6 15.5 49.8 20.7l5 47c2 19 20 34 40.9 34H374c20.9 0 38.9-14.9 40.9-34l4.9-47c17.2-5.2 33.9-12.1 49.8-20.7l36.8 29.8c6.3 5.1 14.2 7.8 22.8 7.8 11.1 0 22.1-4.6 30.2-12.7l46.3-46.3c14.8-14.8 16.9-38 4.9-52.9l-29.8-36.8c8.6-15.9 15.5-32.6 20.7-49.8l47-5c19-2 34-20 34-40.9v-65.5c0-20.9-15-38.8-34-40.8zm1.7 106.4c0 4.8-3 8.6-5.1 8.8L576 390l-2.8 10.9c-5.6 21.8-14.3 42.7-25.8 62.1l-5.7 9.7 43.7 54c1.3 1.6.8 6.4-2.6 9.8l-46.3 46.3c-2 2-4.8 3.3-7.3 3.3-1.1 0-2-.2-2.5-.6l-54-43.7-9.7 5.7c-19.5 11.5-40.4 20.2-62.2 25.8L390 576l-7.3 69.1c-.2 2-4 5.1-8.8 5.1h-65.5c-4.8 0-8.6-3-8.8-5.1l-7.3-69.1-10.9-2.8c-21.8-5.6-42.7-14.3-62.1-25.8l-9.7-5.7-54 43.7c-.5.4-1.4.6-2.5.6-2.5 0-5.3-1.3-7.3-3.3l-46.3-46.3c-3.4-3.4-3.9-8.2-2.6-9.8l43.7-54-5.6-9.6c-11.5-19.5-20.2-40.4-25.8-62.1l-2.8-10.9-69.1-7.3c-2-.2-5.1-4-5.1-8.8v-65.5c0-4.8 3-8.6 5.1-8.8l69.1-7.3 2.8-10.9c5.6-21.8 14.3-42.7 25.8-62.1l5.7-9.7-43.7-54c-1.3-1.6-.8-6.4 2.6-9.8l46.3-46.3c2-2 4.8-3.3 7.3-3.3 1.1 0 2 .2 2.5.6l54 43.7 9.7-5.7c19.5-11.5 40.4-20.2 62.1-25.8l10.9-2.8 7.3-69.1c.2-2 4-5.1 8.8-5.1H374c4.8 0 8.6 3 8.8 5.1l7.3 69.1L401 109c21.8 5.6 42.7 14.3 62.2 25.8l9.7 5.7 54-43.7c.5-.4 1.4-.6 2.5-.6 2.5 0 5.3 1.3 7.3 3.3l46.3 46.3c3.4 3.4 3.9 8.2 2.6 9.8l-43.7 54 5.7 9.7c11.5 19.5 20.2 40.4 25.8 62.2l2.8 10.9 69.1 7.3c2 .2 5.1 4 5.1 8.8V374h-.2zm-309-139.9c-59.1 0-107.1 48-107.1 107.1 0 59.1 48 107.1 107.1 107.1 59.1 0 107.1-48 107.1-107.1 0-59-48-107.1-107.1-107.1zm0 181.9c-41.3 0-74.8-33.6-74.8-74.8s33.6-74.8 74.8-74.8c41.3 0 74.8 33.6 74.8 74.8 0 41.3-33.5 74.8-74.8 74.8z"/></svg>
