<svg xmlns="http://www.w3.org/2000/svg" viewBox="0 0 712.8 712.8"><style>.st0{fill-rule:evenodd;clip-rule:evenodd}</style><path class="st0" d="M705.5 284.5c-4.7-22.8-11.6-45.3-20.8-66.9-9-21.1-20-41.5-32.9-60.5-12.8-18.9-27.4-36.7-43.5-52.7-16.1-16.1-33.8-30.7-52.7-43.5-19-12.8-39.4-23.9-60.5-32.9-21.6-9.1-44.1-16.1-66.9-20.7-46.9-9.6-96.9-9.6-143.6 0-22.8 4.6-45.3 11.6-67 20.8-21.1 9-41.5 20-60.5 32.9-18.9 12.7-36.6 27.4-52.7 43.5-9.9 9.9-19.1 20.7-27.8 31.7V45.3c0-8.9-7.2-16.1-16.1-16.1H49c-8.9 0-16.1 7.2-16.1 16.1v120.4c0 1.9.3 3.6.9 5.3-.6 1.7-.9 3.5-.9 5.4v10.9c0 9 7.3 16.4 16.4 16.4h133.8c9 0 16.4-7.3 16.4-16.4v-10.9c0-9-7.3-16.4-16.4-16.4h-67.8c6.7-8.2 13.7-16.1 21.2-23.6 14.1-14.1 29.6-26.9 46-38 16.6-11.2 34.4-20.9 52.8-28.7 18.9-8 38.5-14.1 58.4-18.1 40.8-8.4 84.5-8.4 125.4 0 19.9 4 39.5 10.1 58.3 18.1 18.5 7.8 36.2 17.5 52.8 28.7 16.5 11.2 32 23.9 46.1 38 14.1 14 26.8 29.5 38 46.1s20.9 34.4 28.7 52.8c7.9 18.9 14.1 38.5 18.1 58.3 4.2 20.6 6.3 41.7 6.3 62.8 0 21.1-2.1 42.2-6.3 62.7-4.1 19.9-10.2 39.5-18.1 58.4-7.8 18.4-17.5 36.2-28.7 52.8-11.2 16.5-23.9 32-38 46.1-14 14.1-29.5 26.8-46 38-16.6 11.2-34.3 20.8-52.8 28.7-18.8 7.9-38.4 14.1-58.3 18.1-41.1 8.3-84.6 8.3-125.4 0-19.9-4.1-39.6-10.2-58.4-18.1a306.1 306.1 0 0 1-52.8-28.7c-16.5-11.2-32-23.9-46.1-38-14.1-14.1-26.9-29.6-38-46.1-11.2-16.6-20.9-34.4-28.7-52.8-8-18.9-14.1-38.5-18.1-58.4-4.2-20.4-6.3-41.5-6.3-62.7 0-12.5-10.1-22.7-22.7-22.7S0 343.9 0 356.4c0 24.2 2.4 48.4 7.2 71.8 4.7 22.8 11.6 45.3 20.8 66.9 9 21.2 20 41.5 32.9 60.5 12.7 18.9 27.4 36.6 43.5 52.7s33.9 30.8 52.7 43.5c19 12.8 39.4 23.9 60.5 32.8 21.6 9.1 44.1 16.1 66.9 20.8 23.5 4.8 47.6 7.2 71.8 7.2 24.1 0 48.3-2.4 71.8-7.2 22.8-4.7 45.3-11.7 66.9-20.8 21.2-9 41.5-20 60.5-32.9 18.9-12.8 36.7-27.4 52.7-43.5 16.1-16.1 30.7-33.8 43.5-52.8 12.9-19 23.9-39.4 32.9-60.5 9.1-21.6 16.1-44.1 20.8-66.9 4.8-23.5 7.2-47.7 7.2-71.8.2-23.9-2.3-48.1-7.1-71.7z"/><path class="st0" d="M356.4 425.4h83.4c19 0 34.5-15.5 34.5-34.5 0-19.1-15.5-34.5-34.5-34.5h-48.9V232c0-19.1-15.5-34.5-34.5-34.5S321.9 213 321.9 232V390.8c-.1 19.2 15.4 34.6 34.5 34.6z"/></svg>
