<svg xmlns="http://www.w3.org/2000/svg" viewBox="0 0 696.3 696.3"><style>.st0{fill-rule:evenodd;clip-rule:evenodd}</style><path class="st0" d="M184.3 573.4c-33.9 0-61.4-27.6-61.4-61.4 0-33.9 27.6-61.4 61.4-61.4s61.4 27.6 61.4 61.4c.1 33.9-27.5 61.4-61.4 61.4zm0-81.9c-11.3 0-20.5 9.2-20.5 20.5s9.2 20.5 20.5 20.5 20.5-9.2 20.5-20.5-9.2-20.5-20.5-20.5zm0-81.9c-33.9 0-61.4-27.6-61.4-61.4s27.6-61.4 61.4-61.4 61.4 27.6 61.4 61.4-27.5 61.4-61.4 61.4zm0-81.9c-11.3 0-20.5 9.2-20.5 20.5s9.2 20.5 20.5 20.5 20.5-9.2 20.5-20.5-9.2-20.5-20.5-20.5zm0-81.9c-33.9 0-61.4-27.6-61.4-61.4 0-33.9 27.6-61.4 61.4-61.4s61.4 27.6 61.4 61.4c.1 33.8-27.5 61.4-61.4 61.4zm0-82c-11.3 0-20.5 9.2-20.5 20.5s9.2 20.5 20.5 20.5 20.5-9.2 20.5-20.5-9.2-20.5-20.5-20.5zm327.7 82c-33.9 0-61.4-27.6-61.4-61.4 0-33.9 27.6-61.4 61.4-61.4s61.4 27.6 61.4 61.4-27.5 61.4-61.4 61.4zm0-82c-11.3 0-20.5 9.2-20.5 20.5s9.2 20.5 20.5 20.5 20.5-9.2 20.5-20.5-9.2-20.5-20.5-20.5zm0 245.8c-33.9 0-61.4-27.6-61.4-61.4s27.6-61.4 61.4-61.4 61.4 27.6 61.4 61.4-27.5 61.4-61.4 61.4zm0-81.9c-11.3 0-20.5 9.2-20.5 20.5s9.2 20.5 20.5 20.5 20.5-9.2 20.5-20.5-9.2-20.5-20.5-20.5zm0 245.7c-33.9 0-61.4-27.6-61.4-61.4 0-33.9 27.6-61.4 61.4-61.4s61.4 27.6 61.4 61.4c0 33.9-27.5 61.4-61.4 61.4zm0-81.9c-11.3 0-20.5 9.2-20.5 20.5s9.2 20.5 20.5 20.5 20.5-9.2 20.5-20.5-9.2-20.5-20.5-20.5z"/><path class="st0" d="M593.9 696.3H102.4C46 696.3 0 650.4 0 593.9V102.4C0 46 46 0 102.4 0h491.5c56.4 0 102.4 46 102.4 102.4v491.5c0 56.5-45.9 102.4-102.4 102.4zM102.4 41C68.5 41 41 68.5 41 102.4v491.5c0 33.9 27.6 61.4 61.4 61.4h491.5c33.9 0 61.4-27.6 61.4-61.4V102.4c0-33.9-27.6-61.4-61.4-61.4H102.4z"/></svg>
