<svg xmlns="http://www.w3.org/2000/svg" viewBox="0 0 715.9 720"><style>.st0{fill-rule:evenodd;clip-rule:evenodd}</style><path class="st0" d="M591.8 720H124C55.6 720 0 665.4 0 598.4V121.7C0 54.6 55.6 0 124 0h467.8c68.4 0 124 54.6 124 121.7v476.7c.1 67-55.6 121.6-124 121.6zM124 52.7c-39.3 0-71.3 30.9-71.3 68.9v476.7c0 38 32 68.8 71.3 68.8h467.8c39.3 0 71.2-30.9 71.2-68.8V121.7c0-38-32-68.9-71.2-68.9L124 52.7zM526.1 164l-214 259.4-132.5-101.9-61.7 76.2L249.7 499l-.2.2 71.8 56.7 276.5-335.1-71.7-56.8z"/></svg>
