<svg xmlns="http://www.w3.org/2000/svg" viewBox="0 0 802.9 802.9"><style>.st0{fill-rule:evenodd;clip-rule:evenodd}</style><path class="st0" d="M401.5 0C623.2 0 803 179.7 803 401.5 803 623.2 623.3 803 401.5 803 179.7 802.9 0 623.2 0 401.5 0 179.7 179.7 0 401.5 0zm124.9 256c0 6.1 2.3 12.2 7 16.8 35.1 35.1 54.6 82.3 54.6 131.9 0 103.1-83.5 186.6-186.6 186.6s-186.6-83.6-186.6-186.6c0-49.6 19.6-96.8 54.6-131.9 4.6-4.6 7-10.7 7-16.8 0-6.1-2.3-12.2-7-16.9-4.6-4.6-10.8-7-16.8-7-6.1 0-12.2 2.3-16.9 7-44.1 44.1-68.6 103.3-68.6 165.7 0 129.4 104.9 234.3 234.3 234.3s234.3-104.9 234.3-234.3c0-62.4-24.5-121.6-68.6-165.7-4.6-4.6-10.8-7-16.9-7-6.1 0-12.2 2.3-16.8 7-4.6 4.7-7 10.8-7 16.9zm-141.8-85.2c-4.3 4.3-7 10.3-7 16.9v217.2c0 6.6 2.7 12.6 7 16.9 4.3 4.3 10.3 7 16.8 7 6.6 0 12.6-2.7 16.9-7 4.3-4.3 7-10.3 7-16.9V187.7c0-6.6-2.7-12.6-7-16.9-4.3-4.3-10.3-7-16.9-7-6.5 0-12.5 2.7-16.8 7z"/></svg>
