<svg xmlns="http://www.w3.org/2000/svg" viewBox="0 0 656.4 656.4"><style>.st0{fill-rule:evenodd;clip-rule:evenodd}</style><path class="st0" d="M328.2 0C146.9 0 0 146.9 0 328.2s146.9 328.2 328.2 328.2 328.2-146.9 328.2-328.2S509.5 0 328.2 0zm130.3 458.5c-9.2 9.2-24.2 9-33.6-.4l-96.3-96.3-93.9 93.9c-9.2 9.1-24.2 9-33.6-.4-9.4-9.4-9.6-24.4-.4-33.6l93.9-93.9-96.3-96.3c-9.4-9.4-9.6-24.4-.4-33.6 9.1-9.2 24.2-9 33.6.4l96.3 96.3 93.9-93.9c9.2-9.2 24.2-9 33.6.4 9.4 9.4 9.6 24.4.4 33.6l-93.9 93.9 96.3 96.3c9.3 9.4 9.5 24.4.4 33.6z"/></svg>
