<svg xmlns="http://www.w3.org/2000/svg" viewBox="0 0 716.2 716.2"><style>.st0{fill-rule:evenodd;clip-rule:evenodd}</style><path class="st0" d="M716.2 604.3c0-20.6-16.7-37.3-37.3-37.3h-74.6c-20.6 0-37.3 16.7-37.3 37.3v74.6c0 20.6 16.7 37.3 37.3 37.3l111.9-111.9zM111.9 716.2c20.6 0 37.3-16.7 37.3-37.3v-74.6c0-20.6-16.7-37.3-37.3-37.3H37.3C16.7 567 0 583.7 0 604.3l111.9 111.9zM716.2 111.9c0 20.6-16.7 37.3-37.3 37.3h-74.6c-20.6 0-37.3-16.7-37.3-37.3V37.3C567 16.7 583.7 0 604.3 0l111.9 111.9zM111.9 0c20.6 0 37.3 16.7 37.3 37.3v74.6c0 20.6-16.7 37.3-37.3 37.3H37.3C16.7 149.2 0 132.5 0 111.9L111.9 0zM268.6 238.7h179c16.5 0 29.8 13.4 29.8 29.8v179c0 16.5-13.4 29.8-29.8 29.8h-179c-16.5 0-29.8-13.4-29.8-29.8v-179c-.1-16.4 13.3-29.8 29.8-29.8z"/></svg>
