<svg xmlns="http://www.w3.org/2000/svg" viewBox="0 0 560.5 711.4"><style>.st0{fill-rule:evenodd;clip-rule:evenodd}</style><path class="st0" d="M517.4 280.3h-43.1V194c0-107.8-86.2-194-194-194s-194 86.2-194 194v86.2H43.1C19.4 280.3 0 299.7 0 323.4v344.9c0 23.7 19.4 43.1 43.1 43.1h474.3c23.7 0 43.1-19.4 43.1-43.1V323.4c0-23.7-19.4-43.1-43.1-43.1zm-194 247.9v43.1c0 17.2-15.1 32.3-32.3 32.3-17.2 0-32.3-15.1-32.3-32.3v-43.1c-12.9-10.8-21.6-25.9-21.6-43.1 0-30.2 23.7-53.9 53.9-53.9s53.9 23.7 53.9 53.9c-.1 17.2-8.7 32.3-21.6 43.1zm86.2-247.9H150.9V194c0-71.1 58.2-129.3 129.3-129.3S409.6 122.9 409.6 194v86.3z"/></svg>
