<svg xmlns="http://www.w3.org/2000/svg" viewBox="0 0 768 819.2"><style>.st0{fill-rule:evenodd;clip-rule:evenodd}</style><path class="st0" d="M358.4 102.4H153.3c-27.6 0-50.9 23.1-50.9 51.7v101.4c0 29.1 22.8 51.7 50.9 51.7h205.1v51.2H153.6v204.8h204.8V768c0 28.4 22.9 51.2 51.2 51.2 28.5 0 51.2-22.9 51.2-51.2V563.2h153.9c28.2 0 50.9-22.7 50.9-51.7V410.1c0-28.6-23.3-51.7-50.9-51.7H460.8v-51.2h153.6V102.4H460.8V51.2c0-28.4-22.9-51.2-51.2-51.2-28.5 0-51.2 22.9-51.2 51.2v51.2zM768 204.8c0 51.2-153.6 102.4-153.6 102.4V102.4S768 153.6 768 204.8zM0 460.8C0 512 153.6 563.2 153.6 563.2V358.4S0 409.6 0 460.8z"/></svg>
