<svg xmlns="http://www.w3.org/2000/svg" viewBox="0 0 813 737.3"><style>.st0{fill-rule:evenodd;clip-rule:evenodd}</style><path class="st0" d="M807 374.4L406.4 0 6.3 373.1c-7.8 7.4-8.6 19.7-.8 27.4 7.4 7.8 19.7 8.6 27.4.8L406.4 53.2 780 402.6c3.7 3.7 8.6 5.3 13.1 5.3 5.3 0 10.2-2 13.9-6.1 8.2-7.8 7.8-20.1 0-27.4zm-122 7.8c-10.7 0-19.7 9-19.7 19.7v297.4H510.1V491.9H302.8v206.4H147.6V401c0-10.6-9-19.7-19.7-19.7s-19.7 9-19.7 19.7v336.3h233.1V530.4h129.4v206.4h233.1V401c.4-10.2-8.2-18.8-18.8-18.8z"/></svg>
