<svg xmlns="http://www.w3.org/2000/svg" viewBox="0 0 818.1 756"><style>.st0{fill-rule:evenodd;clip-rule:evenodd}</style><path class="st0" d="M254.8 756c-9.1-.5-16.3-8.3-16.3-17.8 0-9.8 7.8-17.8 17.3-17.8h135V582.7v-13.9l-10.9-1.9c-39.5-6.2-77-25.2-111.3-56.5-27.4-24.9-52.1-57.1-73.4-95.5l-.8-1.4-1.5.5c-1.7.6-3.5.9-5.1.9-1.1 0-2.2-.2-3.2-.4C48.6 388.3-5.8 245.4.5 115.3c0-9.9 7.8-17.9 17.3-17.9H117l-.1-5.3c-.1-5-.2-10-.2-14.9 0-18.4.8-37.7 2.4-60.7.8-9.2 8.3-16.5 17.3-16.5h543.5c9 0 16.5 7.3 17.2 16.5 1.6 22 2.4 41.8 2.4 60.7 0 6-.1 12.1-.2 18.3v2h101.1c9.5 0 17.2 8 17.2 17.8 6.3 130.2-48.1 273.1-183.8 299.1-1.1.3-2.1.4-3.2.4-2.1 0-4.4-.5-6.6-1.5l-1.6-.7-.8 1.6c-21.4 38.8-46.3 71.2-73.8 96.2-34.4 31.3-71.9 50.3-111.4 56.5l-11 1.8V581c0 1-.1 1.5 0 2.1v137.4h135.1c9.5 0 17.3 8 17.3 17.8s-7.8 17.8-17.3 17.8l-305.7-.1M151.9 48.5c-.4 9.5-.6 18.9-.6 28.6 0 59.7 6.7 118.1 19.9 173.7 12.8 53.7 31 102.4 54.2 144.4 23.4 42.6 50.7 76.2 81.1 100.1 32.4 25.4 66.6 38.2 101.9 38.2 35.2 0 69.5-12.9 101.8-38.2 30.3-23.9 57.6-57.5 81-100.1 23.2-42.1 41.3-90.7 54.2-144.4 13.1-55.6 19.8-114.1 19.8-173.7 0-9.1-.2-18.5-.6-28.6l-.5-12.9H152.5l-.6 12.9m545 93.1l-.6 7.3c-1.8 20.9-4.5 41.7-7.8 61.8-.4 2.3-1.8 10.4-1.8 10.4-9.7 54.4-24.8 105.6-45.1 152.2L640 377l3.9-1c68.4-17.8 141-100.7 138.7-240.9v-1.9h-85l-.7 8.4m-661.4-6.7c-2.3 138.6 69.4 221.8 136.9 240.5l3.9 1.1-1.6-3.7c-30.4-70.1-49.2-150.2-55.6-237.9l-.1-1.9H35.6l-.1 1.9m0 0z"/></svg>
