<svg xmlns="http://www.w3.org/2000/svg" viewBox="0 0 819.2 819.2"><style>.st0{fill-rule:evenodd;clip-rule:evenodd}</style><path class="st0" d="M0 409.6c0 226.3 183.3 409.6 409.6 409.6s409.6-183.3 409.6-409.6S635.9 0 409.6 0 0 183.3 0 409.6zm34.1 0c0-207.4 168.1-375.5 375.5-375.5s375.5 168.1 375.5 375.5c0 84.5-28 162.6-75.1 225.3C686.1 524 602.3 435.2 494.1 404.3c51.5-29.4 86.2-84.8 86.2-148.3 0-94.2-76.5-170.7-170.7-170.7S238.9 161.8 238.9 256c0 63.5 34.6 119 86.2 148.3-108.2 30.9-192 119.6-215.9 230.6-47.1-62.7-75.1-140.8-75.1-225.3zm650.1 256C615.8 739.2 518 785.1 409.6 785.1S203.4 739.2 135 665.6h3.6c16.9-134.7 131.8-238.9 271-238.9s254.1 104.3 271 238.9h3.6zM273.1 256c0-75.4 61.1-136.5 136.5-136.5S546.1 180.6 546.1 256 485 392.5 409.6 392.5 273.1 331.4 273.1 256z"/></svg>
