<svg xmlns="http://www.w3.org/2000/svg" viewBox="0 0 800 800"><style>.st0{fill-rule:evenodd;clip-rule:evenodd}</style><path class="st0" d="M732.1 485.7H800V314.3h-67.9c-68.9 0-85.3-39.8-36.7-88.4l48.1-48.1L622.2 56.5l-48 48c-48.7 48.7-88.5 32.2-88.4-36.6 0-.2-.1-.3-.1-.4V0H314.3v68.2c-.2 68.7-39.9 85.1-88.5 36.4l-48.1-48L56.6 177.7l48 48.1c48.7 48.6 32.2 88.4-36.6 88.4H0v171.4h68c68.8 0 85.3 39.8 36.6 88.5l-48 48 121.2 121.2 48.1-48.1c48.6-48.6 88.3-32.2 88.5 36.4V800h171.4v-67.5c0-.1.1-.3.1-.4-.1-68.8 39.7-85.3 88.4-36.7l48 48.1 121.2-121.2-48.1-48c-48.6-48.8-32.2-88.6 36.7-88.6zM400 550c-82.8 0-150-67.2-150-150s67.2-150 150-150 150 67.2 150 150-67.2 150-150 150z"/></svg>
