<svg xmlns="http://www.w3.org/2000/svg" viewBox="0 0 767.8 686.2"><style>.st0{fill-rule:evenodd;clip-rule:evenodd}</style><path class="st0" d="M767.5 163.9c-1-12.7-11.7-22.6-24.5-22.6h-91.2c.2-1.6.4-3.1.6-4.7 1.5-19.9 2.2-37 2.2-53.7 0-16.5-.7-33.8-2.2-54.2-1.3-16.1-14.9-28.7-31-28.7h-475c-16.1 0-29.7 12.6-30.9 28.7-1.5 20.5-2.2 37.7-2.2 54.2 0 16.6.7 33.8 2.2 53.7.2 1.6.4 3.1.6 4.7H24.8c-12.8 0-23.4 9.8-24.5 22.6-.3 3.1-5.8 78.3 43.7 136 30.2 35.2 73.6 55.9 129 61.6l.6 1.5c22.5 45.3 49.9 82.5 81.6 110.5 31.1 27.5 64.9 44.9 100.6 51.8l3.6.4v111.5H240c-13.6 0-24.6 11-24.6 24.6 0 13.6 11 24.6 24.6 24.6h287.9c13.6 0 24.6-11 24.6-24.6 0-13.6-11-24.6-24.6-24.6H408.5V525.7l3.6-.4c35.7-7 69.5-24.4 100.6-51.8 31.6-28 59.1-65.1 81.6-110.5l.6-1.5c55.4-5.6 98.8-26.3 129-61.6 49.4-57.7 43.9-132.9 43.6-136zM81.6 268.3c-22-25.5-29.2-57-31.5-77.9h73.4c7.4 40.1 17.6 79.5 30.4 118.4-30.7-6.8-54.9-20.4-72.3-40.5zm604.6 0c-17.4 20.1-41.7 33.7-72.4 40.5 12.8-38.9 23.1-78.3 30.4-118.4h73.4c-2.1 20.9-9.3 52.4-31.4 77.9z"/></svg>
