<svg xmlns="http://www.w3.org/2000/svg" viewBox="0 0 811.8 811.7"><style>.st0{fill-rule:evenodd;clip-rule:evenodd}</style><path d="M405.9 0C182.1 0 0 182.1 0 405.9c0 223.8 182.1 405.9 405.9 405.9 223.8 0 405.9-182.1 405.9-405.9C811.8 182.1 629.7 0 405.9 0zm0 770.2C205 770.2 41.5 606.8 41.5 405.9S205 41.5 405.9 41.5c200.9 0 364.4 163.4 364.4 364.3-.1 201-163.5 364.4-364.4 364.4z"/><path class="st0" d="M465.3 192.3L526.7 334h127.1l-74-141.7H465.3zm-96.8 0L307.1 334h182.6l-61.4-141.7h-59.8zm-139.4 0l-74 141.7h115.1l61.4-141.7H229.1zM522.4 371L450 619.7 656.7 371H522.4zm-208.9 0l93.6 300.5h.2-.2L485.5 371h-172zM158 371l202.4 244.2L276.6 371H158z"/></svg>
