<svg xmlns="http://www.w3.org/2000/svg" viewBox="0 0 811.8 811.7"><style>.st0{fill-rule:evenodd;clip-rule:evenodd}</style><path class="st0" d="M405.9 0C182.1 0 0 182.1 0 405.9c0 223.8 182.1 405.9 405.9 405.9 223.8 0 405.9-182.1 405.9-405.9C811.8 182.1 629.7 0 405.9 0zm0 770.2C205 770.2 41.5 606.8 41.5 405.9S205 41.5 405.9 41.5c200.9 0 364.4 163.4 364.4 364.3-.1 201-163.5 364.4-364.4 364.4zm-18-351.4c-1.7-11.3-12.4-19.1-23.7-17.4l-40.6 6.2v-87.5h41.5c11.5 0 20.8-9.3 20.8-20.8s-9.3-20.8-20.8-20.8h-41.5v-69.2c0-11.5-9.3-20.8-20.8-20.8s-20.8 9.3-20.8 20.8v69.2h-27.7V237c0-11.5-9.3-20.8-20.8-20.8s-20.8 9.3-20.8 20.8v49.3c0 15.8-9.5 25.6-16.3 25.6-11.5 0-20.8 9.3-20.8 20.8s9.3 20.8 20.8 20.8c21.3 0 39.7-13.5 49.7-33.4h35.8V414l-85.7 13.2c-11.3 1.7-19.1 12.3-17.4 23.7 1.6 10.3 10.4 17.6 20.5 17.6 1 0 2.1-.1 3.2-.2l79.4-12.2v141c0 11.5 9.3 20.8 20.8 20.8s20.8-9.3 20.8-20.8V449.7l46.9-7.2c11.5-1.7 19.3-12.3 17.5-23.7zm212.7-98.6h-83.1v-41.5h69.2c11.5 0 20.8-9.3 20.8-20.8s-9.3-20.8-20.8-20.8h-69.2v-55.4c0-11.5-9.3-20.8-20.8-20.8s-20.8 9.3-20.8 20.8v55.4h-55.4c-11.5 0-20.8 9.3-20.8 20.8s9.3 20.8 20.8 20.8H476v41.5h-69.2c-11.5 0-20.8 9.3-20.8 20.8s9.3 20.8 20.8 20.8h193.9c11.5 0 20.8-9.3 20.8-20.8-.1-11.5-9.4-20.8-20.9-20.8zm0 96.9h-41.5v-27.7c0-11.5-9.3-20.8-20.8-20.8s-20.8 9.3-20.8 20.8v27.7H406.8c-11.5 0-20.8 9.3-20.8 20.8s9.3 20.8 20.8 20.8h110.8v98.9c0 18.7 0 26.4-38.4 26.4-11.5 0-20.8 9.3-20.8 20.8s9.3 20.8 20.8 20.8c23.9 0 79.9 0 79.9-67.9v-98.9h41.5c11.5 0 20.8-9.3 20.8-20.8 0-11.6-9.3-20.9-20.8-20.9zm-173.1 62.3c-11.5 0-20.8 9.3-20.8 20.8v41.5c0 11.5 9.3 20.8 20.8 20.8s20.8-9.3 20.8-20.8v-41.5c0-11.5-9.3-20.8-20.8-20.8z"/></svg>
