<svg xmlns="http://www.w3.org/2000/svg" viewBox="0 0 819.2 819.2"><style>.st0{fill-rule:evenodd;clip-rule:evenodd}</style><path class="st0" d="M792.3 435.2h-61.5c-14.9 0-26.9-11.5-26.9-25.6 0-14.2 12.1-25.6 26.9-25.6h61.5c14.9 0 26.9 11.5 26.9 25.6 0 14.1-12.1 25.6-26.9 25.6zm-38.5-194.8l-53.3 30.8c-12.9 7.4-29 3.5-36.1-8.7-7.1-12.3-2.4-28.2 10.5-35.7l53.2-30.8c12.9-7.4 29.1-3.5 36.1 8.7 7.2 12.3 2.5 28.3-10.4 35.7zm-161.4-96.1c-7.4 12.9-23.4 17.6-35.7 10.5-12.3-7.1-16.2-23.3-8.7-36.1l30.7-53.3c7.4-12.9 23.4-17.6 35.7-10.5 12.3 7.1 16.2 23.3 8.7 36.1l-30.7 53.3zm-182.7-29c-14.2 0-25.6-12.1-25.6-26.9V26.9C384 12.1 395.5 0 409.7 0c14.2 0 25.6 12.1 25.6 26.9v61.5c0 14.9-11.4 26.9-25.6 26.9zm-147.2 39.3c-12.3 7.1-28.2 2.4-35.7-10.5L196 90.8c-7.4-12.9-3.5-29.1 8.8-36.1 12.3-7.1 28.2-2.4 35.7 10.5l30.7 53.2c7.5 13 3.6 29.1-8.7 36.2zM118.6 271.1l-53.3-30.8c-12.9-7.4-17.6-23.4-10.5-35.7 7.1-12.3 23.3-16.2 36.1-8.7l53.3 30.7c12.9 7.4 17.6 23.4 10.5 35.7-7 12.3-23.2 16.2-36.1 8.8zm-3.3 138.4c0 14.2-12.1 25.6-26.9 25.6H26.9C12.1 435.2 0 423.7 0 409.5c0-14.2 12.1-25.6 26.9-25.6h61.5c14.9 0 26.9 11.5 26.9 25.6zM65.4 578.7l53.3-30.7c12.9-7.4 29-3.5 36.1 8.7 7.1 12.3 2.4 28.2-10.5 35.7L91 623.1c-12.9 7.4-29.1 3.5-36.1-8.8-7.1-12.2-2.4-28.2 10.5-35.6zm161.4 96.2c7.4-12.9 23.4-17.6 35.7-10.5 12.3 7.1 16.2 23.3 8.7 36.1l-30.7 53.3c-7.4 12.9-23.4 17.6-35.7 10.5-12.3-7.1-16.2-23.3-8.7-36.1l30.7-53.3zm182.9 29c14.2 0 25.6 12.1 25.6 26.9v61.5c0 14.9-11.5 26.9-25.6 26.9-14.2 0-25.6-12.1-25.6-26.9v-61.5c-.1-14.9 11.4-26.9 25.6-26.9zm147.1-39.6c12.3-7.1 28.2-2.4 35.7 10.5l30.7 53.3c7.4 12.9 3.5 29.1-8.7 36.1-12.3 7.1-28.2 2.4-35.7-10.5L548 700.4c-7.4-12.9-3.5-29 8.8-36.1zm-147.1 1.3c-141.4 0-256.1-114.7-256.1-256.1 0-141.4 114.7-256.1 256.1-256.1s256.1 114.7 256.1 256.1c0 141.5-114.7 256.1-256.1 256.1zm290.9-117.7l53.3 30.7c12.9 7.4 17.6 23.4 10.5 35.7-7.1 12.3-23.3 16.2-36.1 8.8l-53.2-30.8c-12.9-7.4-17.6-23.4-10.5-35.7 6.9-12.3 23.1-16.2 36-8.7z"/></svg>
