<svg xmlns="http://www.w3.org/2000/svg" viewBox="0 0 749.5 793.8"><style>.st0{fill-rule:evenodd;clip-rule:evenodd}</style><path class="st0" d="M28.7 115.9l19.4 16c4.9 4 6.7 10.3 4.7 16.3l-8 23.8c-2.1 6.1-.1 12.6 5 16.6 5.1 4 11.8 4.3 17.3.8l21.2-13.5c5.4-3.4 11.9-3.2 17 .6l20.2 15c5.2 3.9 11.9 4 17.3.4s7.8-9.9 6.1-16.2l-6.3-24.3c-1.6-6.1.6-12.3 5.8-16l20.5-14.6c5.3-3.7 7.5-10.1 5.7-16.3-1.8-6.2-7-10.4-13.5-10.8L136 92.2c-6.4-.4-11.5-4.4-13.4-10.5l-7.5-24c-1.9-6.2-7.3-10.2-13.8-10.5-6.5-.2-12.1 3.4-14.5 9.5l-9.2 23.4c-2.3 5.9-7.8 9.5-14.1 9.5l-25.1-.3c-6.5-.1-12 3.7-14.2 9.8-2.3 6.2-.5 12.6 4.5 16.8zM157.9 342.9l-36.9-.4c-9.6-.1-17.7 5.5-21 14.5-3.3 9-.7 18.5 6.7 24.6l28.5 23.5c7.2 5.9 9.8 15.2 6.9 24l-11.8 35.1c-3.1 9-.2 18.5 7.3 24.4 7.5 5.9 17.4 6.4 25.5 1.2l31.2-19.9c7.9-5 17.5-4.7 25 .9l29.7 22c7.7 5.7 17.5 5.9 25.5.6 7.9-5.3 11.4-14.6 9-23.8l-9.3-35.8c-2.3-9.1.9-18.1 8.6-23.5l30.1-21.4c7.8-5.5 11-14.9 8.4-24-2.6-9.2-10.3-15.4-19.8-16l-36.9-2.3c-9.3-.6-16.9-6.5-19.7-15.4L233.8 296c-2.9-9.1-10.7-15.1-20.3-15.4-9.5-.3-17.8 5.1-21.3 14L178.6 329c-3.4 8.6-11.4 14-20.7 13.9z"/><path class="st0" d="M352.7 0c-30.1 0-59.3 3.6-87.4 10C404.1 44.8 507 170.1 507 319.7c0 176.6-143.1 319.7-319.7 319.7-70 0-134.6-22.8-187.3-61 65.9 127.8 198.9 215.3 352.7 215.3 219.2 0 396.9-177.7 396.9-396.9C749.5 177.7 571.8 0 352.7 0z"/></svg>
