<svg xmlns="http://www.w3.org/2000/svg" viewBox="0 0 169.3 169.3"><style>.st0{fill:#333}</style><path class="st0" d="M75.1 92v7.6h15l-4.4 9.6-10.6.1v7.7h16.2l-.1-25z"/><path class="st0" d="M84.7 0C38 0 0 38 0 84.7s38 84.7 84.7 84.7 84.7-38 84.7-84.7S131.3 0 84.7 0zM49 39.2h36.8L81 49.9h-4.1l3.7 12.4H66.5l-3.6-12.4H60l-4.7 12.4H40.5L49 39.2zm7.5 84.9L42 130.5V76.9h14.5v47.2zm.7-49.3c-.7-1.2-1-2.5-1-4 0-1.4.4-2.7 1.1-4 .7-1.3 1.7-2.3 3-3 1.3-.7 2.6-1.1 3.9-1.1 1.3 0 2.5.4 3.8 1.1 1.3.7 2.3 1.7 3 2.9.7 1.3 1.1 2.6 1.1 4.1 0 1.4-.3 2.7-1 3.9-.7 1.2-1.7 2.2-3 2.9s-2.6 1.1-3.9 1.1c-1.4 0-2.8-.3-4-1.1-1.3-.6-2.2-1.6-3-2.8zm3.2 52V82.1h45.5v32.7l-13.2 12H60.4zm56 .4h-11V117h6.2V76.8H76.3V66.6h49.9v48.8l-9.8 11.8zm11.7-64.9h-14.5L107 49.5h-2.6l-5.7 12.8h-15l10.5-23.5h34.6l-4.5 10.7h-3.4l7.2 12.8z"/></svg>
