<svg xmlns="http://www.w3.org/2000/svg" viewBox="0 0 169.3 169.3"><style>.st0{fill:#333}</style><path class="st0" d="M77.5 52.7L74 60.4h-2v10.2h4.2V70h19.2V57.3l-17.9-.1z"/><path class="st0" d="M84.7 0C38 0 0 38 0 84.7s38 84.7 84.7 84.7 84.7-38 84.7-84.7S131.3 0 84.7 0zm8.8 116.7c-.8 1.4-1.9 2.5-3.3 3.3-1.4.8-2.9 1.2-4.5 1.2s-3.1-.4-4.5-1.2c-1.4-.8-2.5-1.9-3.3-3.3-.8-1.4-1.2-2.9-1.2-4.5s.4-3.1 1.2-4.6c.8-1.5 2-2.6 3.4-3.4 1.5-.8 2.9-1.2 4.4-1.2 1.5 0 2.9.4 4.4 1.2 1.5.8 2.6 1.9 3.4 3.4.8 1.5 1.2 3 1.2 4.6 0 1.6-.5 3.1-1.2 4.5zm31.2-19.3h-4.4v20.4l-9.9 11.1H98.8v-10.2h6.8V97.5h-29V87.4h28.8v-5.6h14.8v5.6h9l-4.5 10zm.3-17.3H76.1l.1-5.6-4.2 7.1v41.3l-14.9 7.2v-25.4l-2.2 3.9h-15L57.1 81V60.4h-3.5l-1.1 13H39.4l3.3-30.9h12.9l-.7 7.1h2.2V39.2H72v10.3h5.5v-2.7h17.9v-7.1h14.9v7.1h19.1l-4.8 10.4h-14.2V70H130l-5 10.1z"/></svg>
