<svg xmlns="http://www.w3.org/2000/svg" viewBox="0 0 169.3 169.3"><style>.st0{fill:#333}</style><path class="st0" d="M84.7 0C38 0 0 38 0 84.7s38 84.7 84.7 84.7 84.7-38 84.7-84.7S131.3 0 84.7 0zm-15 127.1l-27.7.1v-10.7h32.9l-5.2 10.6zm.5-18.4l-27.9-.1.1-10.5 10.3-17.8H41.9V67.2L54 41.9h15.6L55.2 70h2.6l5.5-10.4h15.2L58.4 97.7l16.9-.1-5.1 11.1zm34.5-55.5H79.2v-9.9h45.2v8.4l-12.7 12.9L127 81.3h-16.6l-7.8-8-8 8h-18l28.1-28.1zm18 74.2H77v-10h17.7V97.7H78.3V87.6h48.4l-4.8 10.1h-12v19.7h17.5l-4.7 10z"/></svg>
