<svg xmlns="http://www.w3.org/2000/svg" viewBox="0 0 489.9 416.2"><path d="M118.1 140.1l-19.1 40v20.7h16.8l-16.2 28.1-.2 16.6 44.2.2 8-17.6-26.7.2 31.7-60.4h-24l-8.6 16.5h-4.1l22.8-44.3z"/><path d="M182.3 202.2l12.7-12.6 12.3 12.6h26.2l-24.2-26.3 20-20.4v-13.3h-71.4v15.7h40.3l-44.3 44.3zM99.2 274.8l43.7-.1 8.2-16.8H99.2zM154.3 259.4v15.8h72.3l7.4-15.8h-27.7v-31.1h19l7.6-16h-76.5v16h25.9v31.1zM277.7 275.7l18.6-27.3h-27.7l-18.7 27.3zM334.4 247.6l18.7 27.4h27.7l-18.7-27.4zM286.1 138.8v11.9h-33.2v75.9h-3.6V242h127.4l6.8-15.6-6.3.1v-75.9h-33.9v-11.3H321v11.3h-12.4v-11.9h-22.5zm0 87.7h-10.7v-22.4h10.7v22.4zm0-37.8h-10.7v-22.5h10.7v22.5zm57.3 15.4h3.6l6.1-15.5h-9.7v-22.5l11.7.1-.1 60.3h-11.6v-22.4zm-22.3 22.4h-12.4v-22.4h12.4v22.4zm0-60.3v22.5h-12.4v-22.5h12.4z"/><path d="M407.9 64.3H63.6l37.2-40.5L77 0 2.1 80.8l81.6 75.5 23.7-23.7L69 97.8h339c27.2 0 48.5 21.3 48.5 48.5l-.6 130c0 9.4 7.6 17.1 17 17.1s17-7.7 17-17.1v-133c0-45-35.2-79-82-79z"/><path d="M382.6 283.6l38.3 34.8h-339c-27.2 0-48.5-21.3-48.5-48.5l.6-130c0-9.4-7.6-17.1-17-17.1s-17 7.7-17 17.1v132.9c0 45.1 35.2 79 81.9 79h344.4l-37.2 40.5 23.8 23.8 74.9-80.8-81.6-75.5-23.6 23.8z"/></svg>
