<svg xmlns="http://www.w3.org/2000/svg" viewBox="0 0 487.8 416.2"><path d="M405.9 64.3H61.5l37.2-40.5L74.9 0 0 80.8l81.6 75.5 23.7-23.7-38.4-34.8h339c27.2 0 48.5 21.3 48.5 48.5l-.6 130c0 9.4 7.6 17.1 17 17.1s17-7.7 17-17.1v-133c0-45-35.2-79-81.9-79z"/><path d="M382.6 283.6l38.3 34.8h-339c-27.2 0-48.5-21.3-48.5-48.5l.6-130c0-9.4-7.6-17.1-17-17.1s-17 7.7-17 17.1v132.9c0 45.1 35.2 79 81.9 79h344.4l-37.2 40.5 23.8 23.8 74.9-80.8-81.6-75.5-23.6 23.8z"/><path d="M196.7 275.2h18l15.4-16.8v-30.9h6.7l7.3-15.3h-14v-8.4h-23v8.4h-44.7v15.3h44.8v32.1l-10.5.1z"/><path d="M183.1 237.8c-2.3-1.2-4.5-1.8-6.8-1.8s-4.6.7-6.8 1.8c-2.3 1.2-4 2.9-5.3 5.1-1.3 2.2-1.9 4.5-1.9 6.9 0 2.4.6 4.7 1.9 6.8 1.2 2.1 2.9 3.8 5.1 5 2.2 1.2 4.6 1.9 7 1.9 2.5 0 4.8-.6 7-1.8 2.2-1.3 3.9-2.9 5.1-5.1 1.2-2.1 1.8-4.4 1.9-6.8 0-2.4-.6-4.7-1.9-6.9-1.3-2.2-3.1-3.9-5.3-5.1z"/><path d="M109.7 144.3l-5.1 46.8H125l1.6-19.7h5.4v31.1l-26.6 41.7h23.2l3.4-5.9v38.5l23.1-10.8v-62.6l6.5-10.8-.1 8.4 75.8.1 7.5-15.1h-30.4v-19.4h22l7.5-15.8h-29.5v-10.7h-23.1v10.7h-27.7v4.1H155v-15.6h-23.1v15.6h-3.4l1-10.7-19.8.1zm45.4 27.1h3.1l5.4-11.8-.1 6.8 27.8.1v19.3h-29.7v.9h-6.5v-15.3zM259 177.9l.1 96 117.7-.1 6.3-15.6H279.2l.1-23.3 86.5-.1 17-15.7V178h-14.4l12.6-18.5v-14.6h-87.7l2.1-5.1h-23L261.3 168h23.3l3.4-7.3h67.3L343.9 178H259zm51.3 41.2h-31v-25.8h31v25.8zm51.1-25.8l.1 25.7-29.9.1v-25.8h29.8z"/></svg>
