<svg xmlns="http://www.w3.org/2000/svg" viewBox="0 0 473.3 696"><path d="M431.5 0H41.8C18.7 0 0 16.1 0 36v624c0 19.9 18.7 36 41.8 36h389.8c23.1 0 41.8-16.1 41.8-36V36c-.1-19.9-18.8-36-41.9-36zM236.6 660c-15.4 0-27.8-10.8-27.8-24s12.5-24 27.8-24c15.4 0 27.8 10.8 27.8 24 .1 13.2-12.4 24-27.8 24zm194.9-84H41.8V72H431.5v504z"/><path d="M351.1 120.4v42.3h8.4v-42.3h42.4v42.3h8.5v-50.8h-59.3zM156.1 120.4h-8.4v-8.5h-8.5v16.9h16.9zM164.6 128.8H190v17h17v-17h8.5v-8.4h8.4v-8.5H207v8.5h-8.5v-8.5H190v8.5h-16.9v-8.5h-17v8.5h8.5zM249.4 120.4h8.5v8.5h-8.5z"/><path d="M215.5 128.8v25.5h8.4v-8.5h17v-33.9h-8.5v8.5h-8.5v8.4zM325.6 128.8h-8.4v-8.4h-8.5v16.9h16.9z"/><path d="M334.1 137.3h-8.5v8.5h-16.9v8.5h25.4v-8.5h8.5v-25.4h-8.5v-8.5h-16.9v8.5h8.4v8.4h8.5zM79.9 145.8v8.5h25.4v-25.5H79.9v8.5zM393.4 137.3v-8.5H368v25.5h25.4v-8.5zM139.2 154.3h8.5v-8.5h8.4v-8.5h-16.9v-8.5h-8.5v17h8.5zM173.1 154.3v-17h-8.5v8.5h-8.5v8.5zM181.6 154.3v8.4H207v-8.4h-17v-8.5h-8.4z"/><path d="M71.4 154.3v-33.9h42.4v42.3h8.4v-50.8H62.9v50.8h8.5zM223.9 154.3v8.4h42.4v-16.9h8.5v-8.5h8.5v8.5h25.4v-8.5h-17v-16.9h-8.4v-8.5h-17v25.4h-8.5v8.5h-16.9v8.5z"/><path d="M283.3 154.3h8.5v8.5h-8.5zM334.1 154.3h8.5v8.5h-8.5zM62.9 162.7h59.3v8.5H62.9zM130.7 162.7h8.5v8.5h-8.5zM181.6 162.7h8.5v8.5h-8.5zM207 162.7h-8.5v17h8.5v-8.5zM232.4 162.7h8.5v8.5h-8.5zM249.4 162.7h8.5v8.5h-8.5z"/><path d="M266.3 162.7v8.5h-8.5v8.5h17v-17zM283.3 171.2v8.5h8.4v-17h-8.4zM317.2 162.7h8.5v8.5h-8.5zM351.1 162.7h59.3v8.5h-59.3zM181.6 171.2h-8.5v-8.5h-8.5v17h17z"/><path d="M334.1 179.7v8.5h8.5v-25.5h-8.5v8.5h-8.5v8.5zM105.3 179.7h-17v16.9h17v-8.4zM113.8 179.7h17v8.5h-17zM376.5 179.7h17v8.5h-17zM62.9 188.2h8.5v8.5h-8.5zM198.5 196.6v8.5h-16.9v17h8.4v-8.5h17v-17h8.5v8.5h8.4v-8.5h17v-8.4h8.5v8.4h-8.5v8.5h-8.5v17h33.9v-8.5h-16.9v-8.5h16.9v-8.5h8.5v-8.4h-17v-8.5h-8.4v-8.5h-8.5v8.5h-8.5v8.5h-8.5v-25.5h-8.4v25.5h-17zM325.6 188.2h8.5v8.5h-8.5zM393.4 188.2h8.5v8.5h-8.5zM71.4 196.6h8.5v8.5h-8.5z"/><path d="M105.3 196.6v8.5h16.9v8.5h8.5v8.5h8.5v-8.5h8.5v-8.5h8.4v8.5h17v-17h8.5v-8.4h-17v-8.5h-8.5v-17h-8.4v17h-8.5v8.5h-8.5v8.4zM351.1 196.6h8.5v8.5h-8.5z"/><path d="M368 205.1v8.5h17v-8.5h-8.5v-16.9h-17v8.4h8.5zM385 196.6h8.5v8.5H385zM62.9 205.1h8.5v8.5h-8.5zM274.8 213.6v8.5h8.5v-8.5h8.4v-8.5h8.5v8.5h-8.5v8.5h17v-8.5h8.5v-17h-17v-8.4h17v-8.5h-8.5v-17h-8.5v17h-8.5v16.9h-8.4v8.5h-17v8.5zM325.6 213.6v8.5h8.5v-8.5h8.5v-8.5h-17zM401.9 205.1h8.5v8.5h-8.5zM88.3 213.6h33.9v8.5H88.3zM147.7 213.6h8.5v8.5h-8.5zM207 213.6h17v8.5h-17zM359.5 213.6h8.5v8.5h-8.5zM393.4 213.6h8.5v8.5h-8.5zM96.8 222.1h8.5v8.5h-8.5zM122.2 222.1h8.5v8.5h-8.5zM181.6 222.1h8.5v8.5h-8.5zM198.5 222.1h8.5v8.5h-8.5zM223.9 222.1h8.5v8.5h-8.5zM317.2 222.1h-17V239h8.5v-8.5h8.5zM342.6 222.1h-17V239h25.5v-8.5h-8.5zM359.5 222.1V239h8.5v-8.5h8.5v-8.4zM393.4 230.5v8.5h17v-16.9h-17zM71.4 230.5v-8.4h-8.5V239h8.5z"/><path d="M79.9 230.5h17v8.5h-17zM105.3 230.5h17v8.5h-17zM130.7 230.5h8.5v8.5h-8.5zM147.7 239h25.4v-8.5h-8.5v-8.4h-25.4v8.4h8.5zM190 230.5h8.5v8.5H190zM207 230.5h8.5v8.5H207zM232.4 230.5h8.5v8.5h-8.5zM274.8 239v-8.5h8.5v-8.4h-33.9v8.4h16.9v8.5zM376.5 230.5h8.5v8.5h-8.5zM79.9 239h8.5v8.5h-8.5zM122.2 239h8.5v8.5h-8.5zM139.2 239h8.5v8.5h-8.5zM266.3 239h8.5v8.5h-8.5zM317.2 239h8.5v8.5h-8.5zM359.5 239h8.5v8.5h-8.5zM385 239h8.5v8.5H385z"/><path d="M401.9 247.5h-8.5v8.5h17v-17h-8.5zM257.8 247.5h8.5v8.5h-8.5zM291.7 247.5h8.5V239h-16.9v17h8.4zM113.8 264.4V256h8.4v-8.5H96.8v8.5h-8.5v8.4h8.5v8.5h8.5v-8.5zM130.7 264.4v8.5h17V256h-17zM164.6 264.4h17v-16.9h16.9V239h-33.9v8.5h-16.9v8.5h16.9zM249.4 256h8.5v8.5h-8.5zM359.5 264.4v8.5h8.5v25.4h25.4v-8.4h-16.9v-25.5h8.5V256h-25.5z"/><path d="M113.8 264.4h8.5v8.5h-8.5zM223.9 264.4h8.5v8.5h-8.5zM240.9 272.9h-8.5v8.5h8.5v8.5h16.9v-8.5h-8.4v-17h-8.5zM300.2 272.9v8.5h8.5v-8.5h16.9v8.5h17v8.5h16.9v-8.5h-8.4v-8.5h-17v-8.5h8.5V256h8.5v-8.5h-8.5V239h-8.5v17h-42.4v8.4h-8.4v8.5zM401.9 264.4h8.5v8.5h-8.5zM71.4 272.9v-8.5h8.5V256h-8.5v-8.5h-8.5v33.9h8.5zM105.3 272.9h8.5v8.5h-8.5z"/><path d="M173.1 272.9v8.5H190v-8.5h8.5v-8.5h17V256h8.4v-8.5h8.5v8.5h17v-8.5h-8.5V239H207v17h-17v8.4h-8.4v8.5z"/><path d="M198.5 272.9h17v8.5h-17zM274.8 272.9v-8.5h8.5V256h-17v8.4h-8.5v17h17zM385 281.4h8.4v-17H385v8.5zM113.8 281.4h8.5v8.5h-8.5zM164.6 289.9v8.4h17v-8.4h-8.5v-8.5h-8.5zM274.8 281.4h8.5v8.5h-8.5zM291.7 289.9h-8.4v8.4h25.4v-8.4h-8.5v-8.5h-8.5zM317.2 281.4h8.5v8.5h-8.5zM393.4 281.4h8.5v8.5h-8.5zM62.9 289.9h8.5v8.5h-8.5zM113.8 289.9h-17v-8.5h-8.5v16.9h25.5zM156.1 289.9v-8.5h-8.4v8.5h-8.5v8.4h16.9zM190 289.9h25.4v8.5H190zM232.4 289.9h8.5v8.5h-8.5zM325.6 289.9h8.5v8.5h-8.5zM130.7 298.3h-16.9v8.5h8.4v8.5h17v-8.5h-8.5zM164.6 298.3h8.5v8.5h-8.5z"/><path d="M190 298.3h8.5v8.5H190zM232.4 298.3h8.5v8.5h-8.5zM249.4 298.3v17h33.9v-8.5h-8.5v-8.5h-8.5v8.5h-8.5v-8.5zM291.7 298.3h8.5v8.5h-8.5zM334.1 306.8h-8.5v8.5h33.9v-8.5h17v-8.5h-42.4zM385 298.3h8.5v8.5H385zM88.3 306.8v-8.5H62.9v17h25.4zM96.8 306.8h8.5v8.5h-8.5zM156.1 315.3v-17h-16.9v8.5h8.5v8.5zM173.1 306.8h17v8.5h-17zM223.9 306.8h8.5v8.5h-8.5zM300.2 306.8h17v8.5h-17zM376.5 306.8h8.5v8.5h-8.5zM401.9 306.8h8.5v8.5h-8.5zM257.8 315.3h8.5v8.5h-8.5zM334.1 323.8v-8.5h-16.9v17h8.4v-8.5zM376.5 315.3h8.5v8.5h-8.5zM393.4 323.8h8.5v16.9h8.5v-25.4h-17zM198.5 323.8h17v8.5h-17zM249.4 332.3v-17h-33.9v8.5h25.4v8.5z"/><path d="M368 323.8v-8.5h-16.9v8.5h-8.5v8.5h-17v8.4H368v-8.4h8.5v-8.5zM385 323.8h8.5v8.5H385zM88.3 332.3h-8.4v-8.5h8.4v8.5h17v8.4h16.9v-8.4h-8.4v-8.5h8.4v8.5h17v-8.5h16.9v8.5h-8.4v8.4H190v-16.9h-8.4v-8.5h-76.3v8.5h-8.5v-8.5H71.4v8.5h-8.5v16.9h25.4zM223.9 332.3h8.5v8.5h-8.5zM249.4 332.3h8.5v8.5h-8.5zM274.8 332.3h16.9v8.4h8.5v-16.9h-16.9v-8.5h-8.5v8.5h-8.5v16.9h8.5zM308.7 332.3h8.5v8.5h-8.5zM376.5 332.3h8.5v8.5h-8.5zM71.4 340.7h17v8.5h-17zM96.8 340.7h8.5v8.5h-8.5zM147.7 340.7v17h16.9v-8.5h-8.5v-8.5zM173.1 340.7h8.5v8.5h-8.5z"/><path d="M207 349.2v8.5h16.9v-8.5h17v-8.5H207zM249.4 340.7h25.4v8.5h-25.4zM130.7 357.7v-17h-8.5v8.5h-16.9v8.5zM181.6 349.2h8.5v8.5h-8.5zM291.7 349.2h17v8.5h-17zM401.9 357.7v-17h-59.3v8.5h-8.5v-8.5h-8.5v8.5h-8.4v8.5h33.9v-8.5h8.4v8.5h8.5v-8.5h8.5v8.5h8.5v-8.5h8.4v8.5zM156.1 357.7h8.5v8.5h-8.5zM173.1 357.7h8.5v8.5h-8.5zM300.2 357.7h8.5v8.5h-8.5zM317.2 357.7h8.5v8.5h-8.5zM359.5 366.2v-8.5h-25.4v16.9h8.5v-8.4zM130.7 374.6h17v8.5h8.4v-16.9h-16.9v-8.5h-17v8.5h8.5z"/><path d="M274.8 374.6v-17h-8.5v8.5h-17v-8.5h-8.5v8.5h-17v-8.5h-8.5v8.5h-17v-8.5H190v8.5h-8.5v17h17v17h8.5v-8.5h17v8.5h-17v8.5h25.4v-25.5h8.5v-8.5h33.9zm-50.9 8.5h-8.5v-8.5h8.5v8.5zM385 366.2h8.4v-8.5H368v8.5h8.5v8.4h8.5z"/><path d="M401.9 374.6H385v8.5h-8.5v-8.5H368v8.5h-8.5v-8.5h-16.9v8.5h-8.5v17h-8.5v8.4h-8.4v8.5h25.4v-25.4H368V417h17v-25.4h8.4v-8.5h17v-16.9h-8.5zM291.7 374.6h8.5v-8.4h-8.5v-8.5h-8.4v25.4h8.4zM96.8 383.1h-8.5v-8.5h33.9v-8.4h-8.4v-8.5h-17v8.5H71.4v-8.5h-8.5v33.9h33.9z"/><path d="M105.3 383.1h17v8.5h-17zM181.6 383.1h-8.5v-8.5h-8.5v17h8.5v8.5h8.5v-8.5zM156.1 391.6h8.5v8.5h-8.5zM317.2 391.6v-8.5h-25.4v25.5h8.5v8.5h8.5v-17h17v-8.5h-8.6zm-17 8.5v-8.5h8.5v8.5h-8.5zM139.2 400.1v-8.5h-8.5v16.9h25.4v-8.4zM164.6 408.5h-8.5v8.5h17v-16.9h-8.5zM198.5 400.1h-16.9v8.4h8.4v8.5h17v-8.5h-8.5zM283.3 400.1v-8.5h-8.5v8.5h-8.5v-8.5h8.5v-8.5h-33.9v17h16.9V417h33.9v-8.5h-8.4zM351.1 400.1h8.5v8.5h-8.5zM71.4 408.5h42.4v8.5h8.4v-16.9H62.9V417h8.5z"/><path d="M240.9 408.5h8.5v8.5h-8.5zM393.4 408.5h17v8.5h-17zM130.7 417v17h25.4v-8.5h-16.9V417zM164.6 417v17h33.9v-8.5h8.5V417h-25.4v8.5h-8.5V417zM232.4 425.5v8.5h8.5v-17h-8.5zM274.8 417v8.5h8.5v8.5h59.3v-8.5h16.9v8.5h8.5v-8.5h8.5V417h-50.9v8.5h-8.4V417zM71.4 425.5V417h-8.5v17h8.5zM105.3 425.5V417H79.9v17h25.4zM122.2 425.5V417h-8.4v17h8.4zM223.9 425.5V417h-8.4v17h8.4zM266.3 425.5V417h-8.5v17h8.5zM393.4 425.5h17v8.5h-17zM79.9 434h25.4v8.5H79.9zM113.8 442.4v8.5h8.4V434h-8.4zM164.6 434h17v8.5h-17zM198.5 434h17v8.5h-17zM240.9 434h8.5v8.5h-8.5zM257.8 442.4v8.5h8.5V434h-8.5zM308.7 434h8.5v8.5h-8.5zM376.5 434h-17v8.4h8.5v8.5h25.4v-8.5h-16.9zM393.4 442.4h8.5v8.5h8.5V434h-17zM71.4 442.4V434h-8.5v16.9h8.5zM147.7 442.4V434h-8.5v16.9h8.5zM190 442.4h8.5v8.5H190zM232.4 450.9V434h-8.5v8.4h-8.4v8.5zM274.8 442.4h8.5v8.5h-8.5zM300.2 442.4V434h-8.5v16.9h8.5zM351.1 450.9V434h-25.5v8.4h-8.4v8.5h16.9v-8.5h8.5v8.5zM62.9 450.9h59.3v8.5H62.9zM147.7 450.9h17v8.5h-17zM190 450.9h17v8.5h-17zM215.5 450.9h8.5v8.5h-8.5zM232.4 450.9h50.9v8.5h-50.9zM300.2 450.9h8.5v8.5h-8.5zM317.2 450.9h25.4v8.5h-25.4zM351.1 450.9h8.5v8.5h-8.5zM368 450.9h8.5v8.5H368zM140.7 487.2c-.4-.9-.6-1.6-.8-2.2l-8.7 1.1c.9 1.8 1.7 4 2.5 6.5h-27.6v13.9h7.1v-7.9h47.2v7.9h7.4v-13.9h-25.4c-.2-1.2-.7-3.1-1.7-5.4z"/><path d="M120.8 522.9h38.5v-18.6h-45.9v46.4h7.4v-3.5h33.8v3h7.4v-21.6h-41.2v-5.7zm0-12.8h31.1v7.1h-31.1v-7.1zm33.9 24.3v7.6h-33.8v-7.6h33.8zM210.9 485.5l-8.5.8c1.3 3.3 2.5 6.4 3.5 9.3h-29.7v7.1h16.6c0 3.3-.2 7.5-.5 12.6 0 12.9-5.8 22.9-17.5 30l6 5.7c11.8-8 18.1-18.4 18.8-31.1H224c0 5.5-.3 10.4-.8 14.7-.2 5.5-3 8-8.5 7.6-1.5 0-3.4-.1-5.7-.3h-5.5c0 .4.1.7.3 1.1.7 2.7 1.2 4.7 1.4 6h5.7c2.5-.2 4.6-.3 6.3-.3 8.7.2 13.3-3.8 13.6-12 0-.9.1-2.5.3-4.6.5-8.4.9-14.7 1.1-19.1h-31.9c.4-3.6.5-7.1.5-10.4h39.3v-7.1h-25.4c-1.4-4-2.7-7.4-3.8-10zM264.6 489.7l-19.7 56h8.7l4.2-12.5h20.6l4.2 12.5h8.7l-19.7-56h-7zm-4.4 35.9l7.8-24.5h.1l7.8 24.5h-15.7zM327.2 493.6c-2-1.7-4-2.8-6-3.3-2-.4-4-.6-6.2-.6h-19.6v56h8.2v-21.8h12.5c5.6-.1 9.8-1.9 12.7-5.5 2.8-3.4 4.2-7.2 4.2-11.3 0-3.1-.6-5.7-1.7-8-1-2.5-2.4-4.3-4.1-5.5zm-4.6 19.3c-1.5 1.9-3.8 2.9-6.9 2.9h-12.2v-18.2h11.9c2.2-.1 4.2.5 5.9 1.6 1.1.7 2 1.6 2.6 2.7.6 1.3.9 2.9.9 4.7 0 2.4-.7 4.4-2.2 6.3zM370.7 493.6c-2-1.7-4-2.8-6-3.3-2-.4-4-.6-6.2-.6h-19.6v56h8.2v-21.8h12.5c5.6-.1 9.8-1.9 12.7-5.5 2.8-3.4 4.2-7.2 4.2-11.3 0-3.1-.6-5.7-1.7-8-1-2.5-2.4-4.3-4.1-5.5zm-4.6 19.3c-1.5 1.9-3.8 2.9-6.9 2.9H347v-18.2h11.9c2.2-.1 4.2.5 5.9 1.6 1.1.7 2 1.6 2.6 2.7.6 1.3.9 2.9.9 4.7 0 2.4-.7 4.4-2.2 6.3z"/></svg>
