<svg xmlns="http://www.w3.org/2000/svg" viewBox="0 0 870.5 856.4"><style>.st0{fill:#4f525a}</style><path class="st0" d="M411 640c0-80.4 39.2-151.8 99.4-196.2h-.1c.7-.5 1.4-1 2.2-1.4 4.2-3 8.5-5.9 12.9-8.7 60.3-43.5 99.5-114.2 99.5-194.2C624.9 107.2 517.7 0 385.5 0S146.1 107.2 146.1 239.4c0 86.9 46.3 163 115.7 205C117.3 493.8 11.4 626 .7 784.4c-.4 2.9-.7 5.8-.7 8.7 0 .5.1 1 .1 1.6.8 34.2 28.8 61.7 63.2 61.7h479.9C464.8 815.9 411 734.1 411 640z"/><path class="st0" d="M656.2 425.7c-4.6 0-9.1.2-13.5.5-1.3.1-2.5.2-3.8.3-3.5.3-6.9.6-10.3 1.1-1.1.1-2.2.3-3.3.4-4.3.6-8.7 1.4-12.9 2.3-.8.2-1.5.4-2.3.5-3.6.8-7.1 1.7-10.6 2.6-1.2.3-2.4.7-3.6 1-3.5 1-6.9 2.1-10.3 3.3-.7.3-1.5.5-2.2.7-4 1.5-8 3.1-11.9 4.8-1 .4-1.9.9-2.9 1.3-3.1 1.4-6.1 2.8-9.1 4.3-1.1.5-2.1 1.1-3.2 1.6-7.4 3.9-14.6 8.3-21.4 13-1 .7-1.9 1.4-2.9 2-2.5 1.8-4.9 3.6-7.3 5.4-1 .8-2 1.5-2.9 2.3-2.8 2.2-5.5 4.5-8.2 6.9-.4.3-.8.7-1.2 1-3 2.7-6 5.6-8.8 8.5-.8.8-1.5 1.6-2.3 2.4-2.1 2.2-4.2 4.4-6.2 6.7-.8 1-1.7 1.9-2.5 2.9-2.1 2.5-4.2 5-6.2 7.6-.5.7-1 1.3-1.5 2-2.5 3.3-4.8 6.6-7.1 10-.6.8-1.1 1.7-1.6 2.5-1.7 2.6-3.4 5.3-5 8-.7 1.1-1.3 2.2-1.9 3.4-1.5 2.7-3 5.5-4.4 8.3-.5.9-1 1.8-1.4 2.8-1.8 3.7-3.5 7.4-5.1 11.2-.3.8-.6 1.6-.9 2.3-1.2 3.1-2.4 6.2-3.5 9.3-.4 1.2-.9 2.5-1.3 3.7-1 2.9-1.9 5.9-2.7 8.8-.3 1.1-.7 2.3-1 3.4-1.1 4-2.1 8.1-2.9 12.2-.1.6-.2 1.1-.3 1.7-.7 3.6-1.3 7.2-1.8 10.9-.2 1.3-.3 2.6-.5 4-.4 3.1-.7 6.2-.9 9.3l-.3 3.9c-.3 4.3-.4 8.7-.4 13 0 118.2 96.1 214.3 214.3 214.3 4.6 0 9.2-.2 13.7-.5 1.2-.1 2.5-.2 3.7-.3 3.6-.3 7.3-.7 10.9-1.2.9-.1 1.9-.2 2.8-.4 4.5-.7 8.9-1.4 13.3-2.4.7-.2 1.4-.3 2.1-.5 3.8-.8 7.5-1.8 11.2-2.8.9-.3 1.9-.5 2.8-.8 8.7-2.6 17.2-5.7 25.4-9.3.6-.3 1.2-.6 1.9-.8 3.8-1.7 7.5-3.5 11.1-5.4.4-.2.8-.4 1.1-.6 7.8-4.2 15.4-8.8 22.6-13.9.5-.4 1.1-.8 1.6-1.2 3.1-2.2 6.2-4.5 9.1-6.9.3-.3.7-.5 1-.8 6.6-5.4 13-11.1 18.9-17.3l1.5-1.5c2.5-2.6 4.9-5.2 7.2-8 .5-.6 1-1.1 1.4-1.7 5.4-6.4 10.5-13.2 15.2-20.2.4-.7.8-1.3 1.3-2 1.8-2.8 3.6-5.7 5.3-8.7l1.5-2.7c1.8-3.2 3.5-6.4 5.1-9.6.2-.5.5-.9.7-1.4 1.8-3.8 3.6-7.6 5.2-11.5.3-.8.6-1.5.9-2.3 1.2-3.1 2.4-6.2 3.5-9.4.4-1.2.8-2.3 1.2-3.5 1-3 1.9-6.1 2.8-9.2.3-1 .6-2 .8-3 1.1-4 2-8.1 2.9-12.3.1-.7.2-1.3.4-2 .7-3.5 1.3-7 1.8-10.5.2-1.3.3-2.6.5-4 .4-3.1.7-6.2.9-9.3.1-1.3.2-2.6.3-3.8.3-4.3.4-8.6.4-13 .3-117.6-95.9-213.7-214-213.7zm30.6 225.9h64v27.8h-77.3v26.8h77.3v26.1h-77.3v61h-33.8v-61h-77.9v-26.1h77.9v-26.8h-77.9v-27.8h64l-76.2-133.4h37.5l54.4 96.8c6.1 11 10.9 20.6 14.3 28.9 2.9-6.6 8-16.8 15.4-30.6l51.4-95.2h40.2l-76 133.5z"/></svg>
