<svg xmlns="http://www.w3.org/2000/svg" viewBox="0 0 874 856.4"><style>.st0{fill:#4f525a}</style><path class="st0" d="M624.9 239.4C624.9 107.2 517.7 0 385.5 0S146.1 107.2 146.1 239.4c0 86.9 46.3 163 115.7 205C117.3 493.8 11.4 626 .7 784.4c-.4 2.9-.7 5.8-.7 8.7 0 .5.1 1 .1 1.6.8 34.2 28.8 61.7 63.2 61.7h430.2c-5.7-9.9-9.1-21.4-9.1-33.7V497.1c0-21.7 10.3-41 26.2-53.3h-.1c.5-.3 1.1-.7 1.6-1 2.1-1.5 4.2-3 6.5-4.2 64-43.1 106.3-116.2 106.3-199.2z"/><path class="st0" d="M740.9 547.8v-84.7H552c-18.5 0-33.5 15-33.5 33.5v325.6c0 18.5 15 33.5 33.5 33.5h288.4c18.5 0 33.5-15 33.5-33.5V595h-85.8c-26 0-47.2-21.2-47.2-47.2zm70.3 174.9H591.8v-27.4h219.5v27.4zm0-66H591.8v-27.4h219.5v27.4z"/><path class="st0" d="M768.3 463.6v84.2c0 10.9 8.9 19.8 19.8 19.8H874v-.2L768.3 463.6z"/></svg>
