<svg xmlns="http://www.w3.org/2000/svg" viewBox="0 0 1005.3 856.4"><style>.st0{fill:#4f525a}</style><path class="st0" d="M756.3 239.4C756.3 107.2 649.1 0 516.9 0S277.4 107.2 277.4 239.4c0 86.9 46.3 163 115.7 205C248.7 493.8 142.7 626 132 784.4c-.4 2.9-.7 5.8-.7 8.7 0 .5.1 1 .1 1.6.8 34.2 28.8 61.7 63.2 61.7h430.2c-5.7-9.9-9.1-21.4-9.1-33.7V497.1c0-21.7 10.3-41 26.2-53.3h-.1c.5-.3 1.1-.7 1.6-1 2.1-1.5 4.2-3 6.5-4.2 64-43.1 106.4-116.2 106.4-199.2z"/><path class="st0" d="M872.3 548.3v-84.7H683.4c-18.5 0-33.5 15-33.5 33.5v325.6c0 18.5 15 33.5 33.5 33.5h288.4c18.5 0 33.5-15 33.5-33.5V595.4h-85.8c-26.1 0-47.2-21.1-47.2-47.1zm70.3 174.9H723.1v-27.4h219.5v27.4zm0-66H723.1v-27.4h219.5v27.4z"/><path class="st0" d="M899.6 464.1v84.2c0 10.9 8.9 19.8 19.8 19.8h85.8v-.2L899.6 464.1zM73.7 821.9c-.2 0-.4 0-.6-.1-21.6-2.3-38.3-20-38.9-42.3l-.1-1.5c0-1.4.2-3.3.5-5.7l.1-1.2c9.1-133.8 91.9-249.5 213.8-301.8.6-.3 1.3-.5 1.9-.8 11-5.1 18.6-16.1 18.6-28.9 0-10.9-5.4-20.4-13.7-26.2-.2-.1-.3-.2-.5-.4-50.7-40.2-80.3-100.7-80.3-166.6 0-106.3 78.2-194.6 180.1-210.4v-.3c.2 0 .4.1.6.1 9.5 0 17.2-7.7 17.2-17.2 0-9.4-7.6-17.1-17.1-17.2-1.4.2-2.8.3-4.2.5-119 17.7-210.7 120.6-210.7 244.5 0 66.5 26 128.3 71.4 174 6.5 6.6 13.5 12.8 20.8 18.6-8.6 3.7-16.9 7.8-25.2 12.1C89.2 513.2 10.1 632.2.7 768.3c-.5 3.7-.7 7-.7 10.1 0 .7 0 1.4.1 2.1C1 819 29.3 850 66.4 855.4c.7.1 1.5.2 2.2.3.6.1 1.1.2 1.7.2 9.5 0 17.2-7.7 17.2-17.2 0-8.3-5.9-15.2-13.8-16.8z"/></svg>
