<svg xmlns="http://www.w3.org/2000/svg" viewBox="0 0 779.3 856"><style>.st0{fill:#4f525a}</style><path class="st0" d="M654.8 548.2L440.5 762.5l.1.1-25.1 93.4 93.6-25.1h-.1l214.3-214.3zM672.517 530.525l38.325-38.324 68.448 68.447-38.325 38.325zM688.9 413.4V88.2c0-48.6-39.4-88.1-88.1-88.1H0v690.5c0 48.6 39.4 88.1 88.1 88.1h292.5l308.3-308.3v-57zM365.8 607.8H316v-57h49.9v57zm57-218.4c-38 34.8-57 64.9-57 90.2V501H316v-30.9c0-30 19.8-64.1 59.4-102.1 30-30 46.7-54.6 49.9-73.6-1.6-42.7-24.6-66.5-68.8-71.2-66.5-3.2-98.9 28.5-97.3 95H207c0-99.7 48.3-148.7 144.8-147.2 83.9 3.2 127.4 44.3 130.6 123.5-.3 28.4-20.1 60.1-59.6 94.9z"/></svg>
