<svg xmlns="http://www.w3.org/2000/svg" viewBox="0 0 856.9 856.1"><style>.st0{fill:#4f525a}</style><path class="st0" d="M829.5 370.4L504.6 32.5C484.4 11.5 457.4 0 428.5 0c-28.9 0-55.9 11.5-76.1 32.5L27.5 370.4C-6 405.3-1.7 435.4 3.8 448c4 8.9 17.3 33.5 55.7 33.5h47.6v259.9c0 59 42.4 114.6 102.7 114.6h138.3V581c0-29.5-4.5-45.9 25.7-45.9h109.3c30.1 0 25.7 16.4 25.7 45.9v275.1h138.3c60.3 0 102.7-55.6 102.7-114.6v-260h47.6c38.4 0 51.8-24.6 55.7-33.5 5.6-12.5 9.9-42.7-23.6-77.6zM797.4 428H696.2v313.5c0 29.5-19 61.1-49.1 61.1h-84.8V581c0-59-18.9-99.4-79.2-99.4H373.8c-60.3 0-79.2 40.4-79.2 99.4v221.6h-84.8c-30.1 0-49.1-31.6-49.1-61.1V428H59.5c-.9 0-1.8-3.7-2.6-3.7 1.9-3.2 5.1-11.4 10.4-17L392.2 69.7c9.7-10.1 23.4-16.3 36.7-16.2 13.3-.1 26.2 6.1 35.8 16.2l324.9 337.7c5.3 5.5 8.5 13.7 10.3 17-.7-.1-1.5 3.6-2.5 3.6z"/></svg>
