<svg xmlns="http://www.w3.org/2000/svg" viewBox="0 0 816.8 626.8"><style>.st0{fill:#4f525a}</style><path class="st0" d="M815.2 108.3C805.3 45.5 756.6 0 692.7 0H124C52.9 0 0 57.7 0 128.5v369.7c0 70.9 52.9 128.5 124 128.5h568.7c71.1 0 124.1-57.7 124.1-128.5V128.5c0-6.5-.5-13.1-1.5-19.6l-.1-.6zM88.1 70.8c16.6-13.3 36.7-16.2 58-16.2h524.6c22.7 0 44.5 4.3 61.6 19.3L743.7 84 726 100c-33.6 30.1-66.8 58.1-98.8 83.2-25.5 20-49.8 37.8-72.2 52.9-34.9 23.5-99.2 62.9-138.7 63.3-17.2 0-59.1-8.7-147.1-67-21.6-14.3-45.1-31-69.6-49.6-33.2-25.1-67.8-53.1-103-83.3L75.3 81.1l12.8-10.3zm675.3 413.1c0 24.7-9.6 45.6-27.2 63-17.5 17.4-40.8 26.3-65.6 26.3H146.1c-51.2 0-92.8-38.4-92.8-89.3V140.4l22.5 18.9c29 24.4 57.5 47.1 84.7 67.7 25.6 19.3 50.1 36.8 72.9 51.9 80.1 53 138.2 77.7 182.8 77.7h1.1c43.9-.4 99.2-24 173.9-74.4 23.7-16 49.3-34.7 75.9-55.6 23.7-18.6 48.5-39.1 73.6-60.9l22.6-19.6v337.8z"/></svg>
