<svg xmlns="http://www.w3.org/2000/svg" viewBox="0 0 771.1 856.1"><style>.st0{fill:#4f525a}</style><path class="st0" d="M769.7 821.6l-.9-3.6c-17.7-135-106.1-252.2-230.7-305.7l-23.2-10 20.8-14.2c73-49.9 116.6-132.4 116.6-220.8C652.5 119.9 532.5 0 385.1 0 237.7 0 117.8 119.9 117.8 267.3c0 88.3 43.6 170.9 116.7 220.8l20.8 14.2-23.2 10C110.2 564.7 22.3 679.4 2.7 811.6l-.5 2-.6 1.8c-1 4.2-1.5 7-1.6 10.2l.1 4.2c0 14.5 11.1 26.2 25.5 26.2 14.3 0 26-11.5 26.2-25.7L54 819l.5-3.2c25.1-159 157.8-276.6 320.1-281.7h.8c1.7 0 3.3.1 5 .3 3.1.2 6.4.2 9.5 0 1.7-.1 3.3-.2 5-.3h.8c162.1 5 294.8 122.5 320 281.3l.5 3 1.6 11.3c2.7 15 12.6 26.2 27.1 26.2 14.2 0 25.9-11.4 26.2-25.6l-.4-4.3c0-.9-.5-2.6-1-4.4zM385.1 482.1c-118.4 0-214.8-96.3-214.8-214.7 0-118.4 96.3-214.8 214.8-214.8 118.4 0 214.7 96.3 214.7 214.8 0 118.4-96.3 214.7-214.7 214.7z"/></svg>
