<svg xmlns="http://www.w3.org/2000/svg" viewBox="0 0 855.8 855.8"><style>.st0{fill:#4f525a}</style><path class="st0" d="M840.8 528.2c-32.2-115.5-101.2-204.6-209-265.3-12.4-7-25.5-12.8-38.3-19.1.1-.2.1-.6.4-.8 2.1-2 4.3-3.9 6.5-5.9 22.2-20.4 42.1-43.9 52.5-71.7 5.1-13.5 6.3-19.3 9.8-31.9 6.5-39.5-1-63.5-25.4-83.5-33-27-70.5-30.2-110.1-14.3-2.7 1.1-4.6 1.9-7.3-.6-50.9-46.3-132.7-46.7-184-1-2.4 2.1-4.1 2.7-7.2 1.3-20.8-9.2-42.6-11.2-64.9-6.7-42.3 8.4-77.3 43-71.1 90.3 5.4 41 21.9 76.5 50.4 107.1 5.8 6.3 12.1 12.2 18.4 18.6-1.6.7-3.1 1.5-4.7 2.2-145.6 64-244 203-255.5 361.2-3.2 43.7-.5 87 10.9 129.9 18 67.5 79.8 118.2 154.1 118 175-.4 349.9 0 524.8-.2 56.2-.1 99.5-24.3 130.9-68.5 16-22.4 23.4-47.9 27.8-74.6 10-62.3 7.9-123.9-9-184.5zm-42.5 144.9c-3.6 23.4-4.7 47.9-18 67.6-26.2 38.7-86.7 59.9-133.6 60-145.8.2-291.6-.2-437.4.2-61.8.1-124.3-34-139.3-93.3-9.5-37.6-10.4-84.8-5.8-122.9 20.3-170.4 155.6-269.3 276.9-325.4 1.3-.6-28-32.2-32.9-37.7-23.7-26.8-47.7-49.6-57.7-84.5-12.3-42.7 22-60.5 47.9-61.3 26.3-.8 50.4 15.8 52.4 13.9 42.7-40.1 110.9-39.7 153.3.9 2.3 2.2 3.8 1.5 6.1.5 33-13.9 61.2-22.8 88.4 1.2 17.7 15.5 11.9 40.3 6.1 58-7.1 21.7-24.6 44.6-48.3 69.1-30.5 31.5-42.4 39.5-44.2 41.2-.2.2 54 20.9 70.6 30 106.8 58.2 170.9 137.3 197.1 223.1 16.1 52.6 26.9 104.9 18.4 159.4z"/><path class="st0" d="M528.3 589.3H456v-30.2h72.3c15.5 0 28.1-12.5 28.1-27.9 0-15.4-12.6-28-28.1-28H456v-14l56.4-55.3c.5-.4 1-.9 1.5-1.4l15.2-15 3.8-3.7 13.3-13.1c11-10.9 11.1-28.6.1-39.5-11-10.9-28.8-11-39.8-.1l-16.9 16.7-57.7 56.6-61.8-60.7L353 357c-11-10.9-28.8-10.8-39.8.1-11 10.9-10.9 28.6.1 39.5l13.3 13.1 3.8 3.8 15.1 15c.5.5 1 .9 1.5 1.4l52.5 51.6v21.8h-72.3c-15.5 0-28.1 12.5-28.1 28 0 15.4 12.6 27.9 28.1 27.9h72.3v30.2h-72.3c-15.5 0-28.1 12.5-28.1 28 0 15.4 12.6 27.9 28.1 27.9h72.3v19.1c0 15.4 12.6 27.9 28.1 27.9 15.5 0 28.1-12.5 28.1-27.9v-19.1H528c15.5 0 28.1-12.5 28.1-27.9.3-15.5-12.3-28.1-27.8-28.1z"/></svg>
